<svg width="41" height="9" viewBox="0 0 41 9" fill="none" xmlns="http://www.w3.org/2000/svg">
  <g clip-path="url(#clip0_258_109)">
    <rect x="5" y="1" width="1" height="1" fill="black"/>
    <rect x="5" y="7" width="1" height="1" fill="black"/>
    <rect y="1" width="1" height="7" fill="black"/>
    <rect x="1" y="8" width="4" height="1" fill="black"/>
    <rect x="1" width="4" height="1" fill="black"/>
    <rect x="7" y="4" width="1" height="4" fill="black"/>
    <rect x="11" y="4" width="1" height="4" fill="black"/>
    <rect x="8" y="8" width="3" height="1" fill="black"/>
    <rect x="8" y="3" width="3" height="1" fill="black"/>
    <rect x="17" y="4" width="1" height="5" fill="black"/>
    <rect x="13" y="3" width="1" height="6" fill="black"/>
    <rect x="14" y="4" width="1" height="1" fill="black"/>
    <rect x="15" y="3" width="2" height="1" fill="black"/>
    <rect x="19" y="1" width="1" height="7" fill="black"/>
    <rect x="20" y="3" width="1" height="1" fill="black"/>
    <rect x="20" y="8" width="1" height="1" fill="black"/>
    <rect x="23" y="3" width="3" height="1" fill="black"/>
    <rect x="23" y="5" width="3" height="1" fill="black"/>
    <rect x="22" y="6" width="1" height="2" fill="black"/>
    <rect x="23" y="8" width="3" height="1" fill="black"/>
    <rect x="26" y="4" width="1" height="5" fill="black"/>
    <rect x="32" y="4" width="1" height="1" fill="black"/>
    <rect x="32" y="7" width="1" height="1" fill="black"/>
    <rect x="29" y="8" width="3" height="1" fill="black"/>
    <rect x="29" y="3" width="3" height="1" fill="black"/>
    <rect x="28" y="4" width="1" height="4" fill="black"/>
    <rect x="34" y="1" width="1" height="7" fill="black"/>
    <rect x="35" y="3" width="1" height="1" fill="black"/>
    <rect x="35" y="8" width="1" height="1" fill="black"/>
    <rect x="40" y="4" width="1" height="1" fill="black"/>
    <rect x="38" y="3" width="2" height="1" fill="black"/>
    <rect x="37" y="4" width="1" height="1" fill="black"/>
    <rect x="38" y="5" width="1" height="1" fill="black"/>
    <rect x="39" y="6" width="1" height="1" fill="black"/>
    <rect x="40" y="7" width="1" height="1" fill="black"/>
    <rect x="38" y="8" width="2" height="1" fill="black"/>
    <rect x="37" y="7" width="1" height="1" fill="black"/>
  </g>
  <defs>
    <clipPath id="clip0_258_109">
      <rect width="41" height="9" fill="white"/>
    </clipPath>
  </defs>
</svg>
