<svg width="37" height="9" viewBox="0 0 37 9" fill="none" xmlns="http://www.w3.org/2000/svg">
  <g clip-path="url(#clip0_83_1342)">
    <rect x="5.5" y="1" width="1" height="1" fill="black"/>
    <rect x="5.5" y="7" width="1" height="1" fill="black"/>
    <rect x="0.5" y="1" width="1" height="7" fill="black"/>
    <rect x="1.5" y="8" width="4" height="1" fill="black"/>
    <rect x="1.5" width="4" height="1" fill="black"/>
    <rect x="7.5" y="4" width="1" height="4" fill="black"/>
    <rect x="11.5" y="4" width="1" height="4" fill="black"/>
    <rect x="8.5" y="8" width="3" height="1" fill="black"/>
    <rect x="8.5" y="3" width="3" height="1" fill="black"/>
    <rect x="17.5" y="4" width="1" height="5" fill="black"/>
    <rect x="13.5" y="3" width="1" height="6" fill="black"/>
    <rect x="14.5" y="4" width="1" height="1" fill="black"/>
    <rect x="15.5" y="3" width="2" height="1" fill="black"/>
    <rect x="19.5" y="1" width="1" height="7" fill="black"/>
    <rect x="20.5" y="3" width="1" height="1" fill="black"/>
    <rect x="20.5" y="8" width="1" height="1" fill="black"/>
    <rect x="23.5" y="3" width="3" height="1" fill="black"/>
    <rect x="23.5" y="5" width="3" height="1" fill="black"/>
    <rect x="22.5" y="6" width="1" height="2" fill="black"/>
    <rect x="23.5" y="8" width="3" height="1" fill="black"/>
    <rect x="26.5" y="4" width="1" height="5" fill="black"/>
    <rect x="32.5" y="4" width="1" height="1" fill="black"/>
    <rect x="32.5" y="7" width="1" height="1" fill="black"/>
    <rect x="29.5" y="8" width="3" height="1" fill="black"/>
    <rect x="29.5" y="3" width="3" height="1" fill="black"/>
    <rect x="28.5" y="4" width="1" height="4" fill="black"/>
    <rect x="34.5" y="1" width="1" height="7" fill="black"/>
    <rect x="35.5" y="3" width="1" height="1" fill="black"/>
    <rect x="35.5" y="8" width="1" height="1" fill="black"/>
  </g>
  <defs>
    <clipPath id="clip0_83_1342">
      <rect width="36" height="9" fill="white" transform="translate(0.5)"/>
    </clipPath>
  </defs>
</svg>
