<svg width="31" height="9" viewBox="0 0 31 9" fill="none" xmlns="http://www.w3.org/2000/svg">
  <g clip-path="url(#clip0_85_21682)">
    <rect x="5" y="1" width="1" height="1" fill="black"/>
    <rect x="3" y="4" width="2" height="1" fill="black"/>
    <rect x="5" y="5" width="1" height="3" fill="black"/>
    <rect x="1" y="8" width="4" height="1" fill="black"/>
    <rect y="1" width="1" height="7" fill="black"/>
    <rect x="1" width="4" height="1" fill="black"/>
    <rect x="8" y="3" width="3" height="1" fill="black"/>
    <rect x="8" y="5" width="3" height="1" fill="black"/>
    <rect x="8" y="8" width="3" height="1" fill="black"/>
    <rect x="11" y="4" width="1" height="5" fill="black"/>
    <rect x="7" y="6" width="1" height="2" fill="black"/>
    <rect x="13" y="4" width="1" height="5" fill="black"/>
    <rect x="16" y="4" width="1" height="5" fill="black"/>
    <rect x="19" y="4" width="1" height="5" fill="black"/>
    <rect x="13" y="3" width="3" height="1" fill="black"/>
    <rect x="17" y="3" width="2" height="1" fill="black"/>
    <rect x="22" y="3" width="3" height="1" fill="black"/>
    <rect x="22" y="5" width="3" height="1" fill="black"/>
    <rect x="22" y="8" width="3" height="1" fill="black"/>
    <rect x="25" y="7" width="1" height="1" fill="black"/>
    <rect x="25" y="4" width="1" height="2" fill="black"/>
    <rect x="21" y="4" width="1" height="4" fill="black"/>
    <rect x="30" y="4" width="1" height="1" fill="black"/>
    <rect x="28" y="3" width="2" height="1" fill="black"/>
    <rect x="27" y="4" width="1" height="1" fill="black"/>
    <rect x="28" y="5" width="1" height="1" fill="black"/>
    <rect x="29" y="6" width="1" height="1" fill="black"/>
    <rect x="30" y="7" width="1" height="1" fill="black"/>
    <rect x="28" y="8" width="2" height="1" fill="black"/>
    <rect x="27" y="7" width="1" height="1" fill="black"/>
  </g>
  <defs>
    <clipPath id="clip0_85_21682">
      <rect width="31" height="9" fill="white"/>
    </clipPath>
  </defs>
</svg>
