<svg width="57" height="56" viewBox="0 0 57 56" fill="none" xmlns="http://www.w3.org/2000/svg">
  <rect x="28.5" y="35" width="4.66667" height="2.33333" fill="#2136F2"/>
  <rect x="14.5" y="28" width="7" height="2.33333" fill="#2136F2"/>
  <rect x="23.8333" y="32.6667" width="11.6667" height="2.33333" fill="#2136F2"/>
  <rect x="19.1667" y="30.3333" width="18.6667" height="2.33333" fill="#2136F2"/>
  <rect x="9.83333" y="25.6667" width="11.6667" height="2.33333" fill="#2136F2"/>
  <rect x="28.5" y="28" width="11.6667" height="2.33333" fill="#2136F2"/>
  <rect x="28.5" y="25.6667" width="14" height="2.33333" fill="#2136F2"/>
  <rect x="33.1667" y="23.3333" width="11.6667" height="2.33333" fill="#2136F2"/>
  <rect x="37.8333" y="21" width="9.33333" height="2.33333" fill="#2136F2"/>
  <rect x="42.5" y="18.6667" width="7" height="2.33333" fill="#2136F2"/>
  <rect x="44.8333" y="16.3333" width="7" height="2.33333" fill="#2136F2"/>
  <rect x="44.8333" y="14" width="9.33333" height="2.33333" fill="#2136F2"/>
  <rect x="42.5" y="11.6667" width="9.33333" height="2.33333" fill="#2136F2"/>
  <rect x="40.1667" y="9.33334" width="7" height="2.33333" fill="#2136F2"/>
  <rect x="35.5" y="7" width="7" height="2.33333" fill="#2136F2"/>
  <rect x="30.8333" y="4.66666" width="7" height="2.33333" fill="#2136F2"/>
  <rect x="28.5" y="2.33334" width="4.66667" height="2.33333" fill="#2136F2"/>
  <rect x="26.1667" width="4.66667" height="2.33333" fill="#2136F2"/>
  <rect x="23.8333" y="2.33334" width="2.33333" height="2.33333" fill="#2136F2"/>
  <rect x="21.5" y="4.66666" width="2.33333" height="2.33333" fill="#2136F2"/>
  <rect x="19.1667" y="7" width="2.33333" height="2.33333" fill="#2136F2"/>
  <rect x="16.8333" y="9.33334" width="2.33333" height="2.33333" fill="#2136F2"/>
  <rect x="14.5" y="11.6667" width="2.33333" height="2.33333" fill="#2136F2"/>
  <rect x="12.1667" y="14" width="2.33333" height="2.33333" fill="#2136F2"/>
  <rect x="9.83333" y="16.3333" width="2.33333" height="2.33333" fill="#2136F2"/>
  <rect x="7.5" y="18.6667" width="2.33333" height="2.33333" fill="#2136F2"/>
  <rect x="5.16667" y="21" width="2.33333" height="2.33333" fill="#2136F2"/>
  <rect x="2.83333" y="23.3333" width="2.33333" height="2.33333" fill="#2136F2"/>
  <rect x="7.5" y="23.3333" width="21" height="2.33333" fill="#2136F2"/>
  <rect x="9.83333" y="21" width="16.3333" height="2.33333" fill="#2136F2"/>
  <rect x="12.1667" y="18.6667" width="16.3333" height="2.33333" fill="#2136F2"/>
  <rect x="14.5" y="16.3333" width="21" height="2.33333" fill="#2136F2"/>
  <rect x="16.8333" y="14" width="14" height="2.33333" fill="#2136F2"/>
  <rect x="19.1667" y="11.6667" width="9.33333" height="2.33333" fill="#2136F2"/>
  <rect x="33.1667" y="14" width="4.66667" height="2.33333" fill="#2136F2"/>
  <rect x="21.5" y="9.33334" width="9.33333" height="2.33333" fill="#2136F2"/>
  <rect x="23.8333" y="7" width="11.6667" height="2.33333" fill="#2136F2"/>
  <rect x="26.1667" y="4.66666" width="4.66667" height="2.33333" fill="#2136F2"/>
  <rect x="2.83333" y="37.3333" width="4.66667" height="2.33333" fill="#2136F2"/>
  <rect x="7.5" y="39.6667" width="4.66667" height="2.33333" fill="#2136F2"/>
  <rect x="12.1667" y="42" width="4.66667" height="2.33333" fill="#2136F2"/>
  <rect x="16.8333" y="44.3333" width="4.66667" height="2.33333" fill="#2136F2"/>
  <rect x="21.5" y="46.6667" width="4.66667" height="2.33333" fill="#2136F2"/>
  <rect x="26.1667" y="49" width="4.66667" height="2.33333" fill="#2136F2"/>
  <rect x="30.8333" y="51.3333" width="2.33333" height="2.33333" fill="#2136F2"/>
  <rect x="33.1667" y="49" width="2.33333" height="2.33333" fill="#2136F2"/>
  <rect x="33.1667" y="49" width="2.33333" height="2.33333" fill="#2136F2"/>
  <rect x="35.5" y="46.6667" width="2.33333" height="2.33333" fill="#2136F2"/>
  <rect x="37.8333" y="44.3333" width="2.33333" height="2.33333" fill="#2136F2"/>
  <rect x="40.1667" y="42" width="2.33333" height="2.33333" fill="#2136F2"/>
  <rect x="42.5" y="39.6667" width="2.33333" height="2.33333" fill="#2136F2"/>
  <rect x="44.8333" y="37.3333" width="2.33333" height="2.33333" fill="#2136F2"/>
  <rect x="47.1667" y="35" width="2.33333" height="2.33333" fill="#2136F2"/>
  <rect x="49.5" y="32.6667" width="2.33333" height="2.33333" fill="#2136F2"/>
  <rect x="51.8333" y="30.3333" width="2.33333" height="2.33333" fill="#2136F2"/>
  <rect x="0.5" y="25.6667" width="2.33333" height="14" fill="#2136F2"/>
  <rect x="23.8333" y="28" width="2.33333" height="2.33333" fill="#FEFB00"/>
  <rect x="23.8333" y="25.6667" width="2.33333" height="2.33333" fill="#FEFB00"/>
  <rect x="28.5" y="21" width="2.33333" height="2.33333" fill="#FEFB00"/>
  <rect x="30.8333" y="21" width="2.33333" height="2.33333" fill="#FEFB00"/>
  <rect x="30.8333" y="18.6667" width="2.33333" height="2.33333" fill="#FEFB00"/>
  <rect x="33.1667" y="18.6667" width="2.33333" height="2.33333" fill="#FEFB00"/>
  <rect x="35.5" y="18.6667" width="2.33333" height="2.33333" fill="#FEFB00"/>
  <rect x="37.8333" y="18.6667" width="2.33333" height="2.33333" fill="#FEFB00"/>
  <rect x="37.8333" y="16.3333" width="2.33333" height="2.33333" fill="#FEFB00"/>
  <rect x="37.8333" y="14" width="2.33333" height="2.33333" fill="#FEFB00"/>
  <rect x="37.8333" y="11.6667" width="2.33333" height="2.33333" fill="#FEFB00"/>
  <rect x="40.1667" y="11.6667" width="2.33333" height="2.33333" fill="#FEFB00"/>
  <rect x="40.1667" y="14" width="2.33333" height="2.33333" fill="#FEFB00"/>
  <rect x="40.1667" y="16.3333" width="2.33333" height="2.33333" fill="#FEFB00"/>
  <rect x="35.5" y="11.6667" width="2.33333" height="2.33333" fill="#FEFB00"/>
  <rect x="35.5" y="9.33334" width="2.33333" height="2.33333" fill="#FEFB00"/>
  <rect x="33.1667" y="9.33334" width="2.33333" height="2.33333" fill="#FEFB00"/>
  <rect x="33.1667" y="11.6667" width="2.33333" height="2.33333" fill="#FEFB00"/>
  <rect x="30.8333" y="11.6667" width="2.33333" height="2.33333" fill="#FEFB00"/>
  <rect x="28.5" y="11.6667" width="2.33333" height="2.33333" fill="#FEFB00"/>
  <rect x="21.5" y="28" width="2.33333" height="2.33333" fill="#929000"/>
  <rect x="21.5" y="25.6667" width="2.33333" height="2.33333" fill="#929000"/>
  <rect width="2.33333" height="4.66667" transform="matrix(1 0 0 -1 26.1667 30.3333)" fill="#929000"/>
  <rect width="4.66667" height="2.33333" transform="matrix(1 0 0 -1 28.5 25.6667)" fill="#929000"/>
  <rect width="4.66667" height="2.33333" transform="matrix(1 0 0 -1 33.1667 23.3333)" fill="#929000"/>
  <rect width="2.33333" height="2.33333" transform="matrix(1 0 0 -1 40.1667 21)" fill="#929000"/>
  <rect width="2.33333" height="2.33333" transform="matrix(1 0 0 -1 42.5 18.6667)" fill="#929000"/>
  <rect width="2.33333" height="2.33333" transform="matrix(1 0 0 -1 42.5 16.3333)" fill="#929000"/>
  <rect width="2.33333" height="2.33333" transform="matrix(1 0 0 -1 37.8333 11.6667)" fill="#929000"/>
  <rect width="2.33333" height="2.33333" transform="matrix(1 0 0 -1 30.8333 11.6667)" fill="#929000"/>
  <rect width="2.33333" height="2.33333" transform="matrix(1 0 0 -1 30.8333 16.3333)" fill="#929000"/>
  <rect width="2.33333" height="2.33333" transform="matrix(1 0 0 -1 35.5 18.6667)" fill="#929000"/>
  <rect width="2.33333" height="2.33333" transform="matrix(1 0 0 -1 28.5 21)" fill="#929000"/>
  <rect width="2.33333" height="2.33333" transform="matrix(1 0 0 -1 26.1667 23.3333)" fill="#929000"/>
  <rect x="2.83333" y="39.6667" width="4.66667" height="2.33333" fill="black"/>
  <rect x="7.5" y="42" width="4.66667" height="2.33333" fill="black"/>
  <rect x="12.1667" y="44.3333" width="4.66667" height="2.33333" fill="black"/>
  <rect x="16.8333" y="46.6667" width="4.66667" height="2.33333" fill="black"/>
  <rect x="21.5" y="49" width="4.66667" height="2.33333" fill="black"/>
  <rect x="26.1667" y="51.3333" width="4.66667" height="2.33333" fill="black"/>
  <rect x="30.8333" y="53.6667" width="2.33333" height="2.33333" fill="black"/>
  <rect x="33.1667" y="51.3333" width="2.33333" height="2.33333" fill="black"/>
  <rect x="35.5" y="49" width="2.33333" height="2.33333" fill="black"/>
  <rect x="37.8333" y="46.6667" width="2.33333" height="2.33333" fill="black"/>
  <rect x="40.1667" y="44.3333" width="2.33333" height="2.33333" fill="black"/>
  <rect x="42.5" y="42" width="2.33333" height="2.33333" fill="black"/>
  <rect x="44.8333" y="39.6667" width="2.33333" height="2.33333" fill="black"/>
  <rect x="47.1667" y="37.3333" width="2.33333" height="2.33333" fill="black"/>
  <rect x="49.5" y="35" width="2.33333" height="2.33333" fill="black"/>
  <rect x="51.8333" y="32.6667" width="2.33333" height="2.33333" fill="black"/>
  <rect x="54.1667" y="28" width="2.33333" height="4.66667" fill="black"/>
  <rect x="51.8333" y="16.3333" width="2.33333" height="14" fill="black"/>
  <rect x="49.5" y="18.6667" width="2.33333" height="2.33333" fill="black"/>
  <rect x="54.1667" y="14" width="2.33333" height="2.33333" fill="black"/>
  <rect x="51.8333" y="11.6667" width="4.66667" height="2.33333" fill="black"/>
  <rect x="47.1667" y="9.33334" width="4.66667" height="2.33333" fill="black"/>
  <rect x="42.5" y="7" width="4.66667" height="2.33333" fill="black"/>
  <rect x="37.8333" y="4.66666" width="4.66667" height="2.33333" fill="black"/>
  <rect x="33.1667" y="2.33334" width="4.66667" height="2.33333" fill="black"/>
  <rect x="30.8333" width="2.33333" height="2.33333" fill="black"/>
  <rect x="47.1667" y="21" width="2.33333" height="2.33333" fill="black"/>
  <rect x="44.8333" y="23.3333" width="2.33333" height="2.33333" fill="black"/>
  <rect x="42.5" y="25.6667" width="2.33333" height="2.33333" fill="black"/>
  <rect x="40.1667" y="28" width="2.33333" height="2.33333" fill="black"/>
  <rect x="37.8333" y="30.3333" width="2.33333" height="2.33333" fill="black"/>
  <rect x="35.5" y="32.6667" width="2.33333" height="2.33333" fill="black"/>
  <rect x="33.1667" y="35" width="2.33333" height="2.33333" fill="black"/>
  <rect x="28.5" y="37.3333" width="4.66667" height="2.33333" fill="black"/>
  <rect x="23.8333" y="35" width="4.66667" height="2.33333" fill="black"/>
  <rect x="19.1667" y="32.6667" width="4.66667" height="2.33333" fill="black"/>
  <rect x="14.5" y="30.3333" width="4.66667" height="2.33333" fill="black"/>
  <rect x="9.83333" y="28" width="4.66667" height="2.33333" fill="black"/>
  <rect x="5.16666" y="25.6667" width="4.66667" height="2.33333" fill="black"/>
  <rect x="2.83333" y="25.6667" width="2.33333" height="11.6667" fill="black"/>
  <rect x="7.5" y="32.6667" width="7" height="2.33333" fill="white"/>
  <rect x="7.5" y="35" width="11.6667" height="2.33333" fill="white"/>
  <rect x="12.1667" y="37.3333" width="11.6667" height="2.33333" fill="white"/>
  <rect x="16.8333" y="39.6667" width="11.6667" height="2.33333" fill="white"/>
  <rect x="21.5" y="42" width="11.6667" height="2.33333" fill="white"/>
  <rect x="26.1667" y="44.3333" width="7" height="2.33333" fill="white"/>
  <rect x="30.8333" y="46.6667" width="2.33333" height="2.33333" fill="white"/>
  <rect x="5.16667" y="30.3333" width="2.33333" height="7" fill="#C8CCCF"/>
  <rect x="7.5" y="30.3333" width="2.33333" height="2.33333" fill="#C8CCCF"/>
  <rect x="33.1667" y="39.6667" width="2.33333" height="7" fill="#DCDCDC"/>
  <rect x="35.5" y="37.3333" width="2.33333" height="7" fill="#DCDCDC"/>
  <rect x="37.8333" y="35" width="2.33333" height="7" fill="#DCDCDC"/>
  <rect x="40.1667" y="32.6667" width="2.33333" height="7" fill="#DCDCDC"/>
  <rect x="42.5" y="30.3333" width="2.33333" height="7" fill="#DCDCDC"/>
  <rect x="44.8333" y="28" width="2.33333" height="7" fill="#DCDCDC"/>
  <rect x="47.1667" y="25.6667" width="2.33333" height="7" fill="#DCDCDC"/>
  <rect x="49.5" y="23.3333" width="2.33333" height="7" fill="#DCDCDC"/>
  <rect x="49.5" y="21" width="2.33333" height="2.33333" fill="#939391"/>
  <rect x="47.1667" y="23.3333" width="2.33333" height="2.33333" fill="#939391"/>
  <rect x="44.8333" y="25.6667" width="2.33333" height="2.33333" fill="#939391"/>
  <rect x="42.5" y="28" width="2.33333" height="2.33333" fill="#939391"/>
  <rect x="40.1667" y="30.3333" width="2.33333" height="2.33333" fill="#939391"/>
  <rect x="37.8333" y="32.6667" width="2.33333" height="2.33333" fill="#939391"/>
  <rect x="35.5" y="35" width="2.33333" height="2.33333" fill="#939391"/>
  <rect x="33.1667" y="37.3333" width="2.33333" height="2.33333" fill="#939391"/>
  <rect x="49.5" y="30.3333" width="2.33333" height="2.33333" fill="#939391"/>
  <rect x="47.1667" y="32.6667" width="2.33333" height="2.33333" fill="#939391"/>
  <rect x="44.8333" y="35" width="2.33333" height="2.33333" fill="#939391"/>
  <rect x="42.5" y="37.3333" width="2.33333" height="2.33333" fill="#939391"/>
  <rect x="40.1667" y="39.6667" width="2.33333" height="2.33333" fill="#939391"/>
  <rect x="37.8333" y="42" width="2.33333" height="2.33333" fill="#939391"/>
  <rect x="35.5" y="44.3333" width="2.33333" height="2.33333" fill="#939391"/>
  <rect x="33.1667" y="46.6667" width="2.33333" height="2.33333" fill="#939391"/>
  <rect x="28.5" y="39.6667" width="4.66667" height="2.33333" fill="#929290"/>
  <rect x="26.1667" y="46.6667" width="4.66667" height="2.33333" fill="#929290"/>
  <rect x="21.5" y="44.3333" width="4.66667" height="2.33333" fill="#929290"/>
  <rect x="16.8333" y="42" width="4.66667" height="2.33333" fill="#929290"/>
  <rect x="12.1667" y="39.6667" width="4.66667" height="2.33333" fill="#929290"/>
  <rect x="7.5" y="37.3333" width="4.66667" height="2.33333" fill="#929290"/>
  <rect x="23.8333" y="37.3333" width="4.66667" height="2.33333" fill="#929290"/>
  <rect x="19.1667" y="35" width="4.66667" height="2.33333" fill="#929290"/>
  <rect x="14.5" y="32.6667" width="4.66667" height="2.33333" fill="#929290"/>
  <rect x="9.83334" y="30.3333" width="4.66667" height="2.33333" fill="#929290"/>
  <rect x="5.16667" y="28" width="4.66667" height="2.33333" fill="#929290"/>
  <rect x="5.16667" y="23.3333" width="2.33333" height="2.33333" fill="#0F1C99"/>
  <rect x="30.8333" y="51.3333" width="2.33333" height="2.33333" fill="#0F1C99"/>
  <rect x="7.5" y="21" width="2.33333" height="2.33333" fill="#0F1C99"/>
  <rect x="33.1667" y="49" width="2.33333" height="2.33333" fill="#0F1C99"/>
  <rect x="9.83334" y="18.6667" width="2.33333" height="2.33333" fill="#0F1C99"/>
  <rect x="35.5" y="46.6667" width="2.33333" height="2.33333" fill="#0F1C99"/>
  <rect x="12.1667" y="16.3333" width="2.33333" height="2.33333" fill="#0F1C99"/>
  <rect x="37.8333" y="44.3333" width="2.33333" height="2.33333" fill="#0F1C99"/>
  <rect x="14.5" y="14" width="2.33333" height="2.33333" fill="#0F1C99"/>
  <rect x="40.1667" y="42" width="2.33333" height="2.33333" fill="#0F1C99"/>
  <rect x="16.8333" y="11.6667" width="2.33333" height="2.33333" fill="#0F1C99"/>
  <rect x="42.5" y="39.6667" width="2.33333" height="2.33333" fill="#0F1C99"/>
  <rect x="19.1667" y="9.33334" width="2.33333" height="2.33333" fill="#0F1C99"/>
  <rect x="44.8333" y="37.3333" width="2.33333" height="2.33333" fill="#0F1C99"/>
  <rect x="21.5" y="7" width="2.33333" height="2.33333" fill="#0F1C99"/>
  <rect x="47.1667" y="35" width="2.33333" height="2.33333" fill="#0F1C99"/>
  <rect x="23.8333" y="4.66669" width="2.33333" height="2.33333" fill="#0F1C99"/>
  <rect x="49.5" y="32.6667" width="2.33333" height="2.33333" fill="#0F1C99"/>
  <rect x="26.1667" y="2.33334" width="2.33333" height="2.33333" fill="#0F1C99"/>
  <rect x="51.8333" y="30.3333" width="2.33333" height="2.33333" fill="#0F1C99"/>
  <rect x="30.8333" y="49" width="2.33333" height="2.33333" fill="#D9D9D9"/>
</svg>
