<svg width="57" height="56" viewBox="0 0 57 56" fill="none" xmlns="http://www.w3.org/2000/svg">
  <rect x="25" y="38.5" width="3.5" height="1.75" fill="#928F00"/>
  <rect x="25" y="36.75" width="7" height="1.75" fill="#928F00"/>
  <rect x="25" y="35" width="10.5" height="1.75" fill="#928F00"/>
  <rect x="26.75" y="33.25" width="12.25" height="1.75" fill="#928F00"/>
  <rect x="28.5" y="31.5" width="14" height="1.75" fill="#928F00"/>
  <rect x="30.25" y="29.75" width="12.25" height="1.75" fill="#928F00"/>
  <rect x="32" y="28" width="10.5" height="1.75" fill="#928F00"/>
  <rect x="33.75" y="26.25" width="7" height="1.75" fill="#928F00"/>
  <rect x="37.25" y="24.5" width="3.5" height="1.75" fill="#928F00"/>
  <rect x="39" y="22.75" width="1.75" height="1.75" fill="#928F00"/>
  <rect x="42.5" y="26.25" width="1.75" height="1.75" fill="#928F00"/>
  <rect x="47.75" y="29.75" width="5.25" height="1.75" fill="#928F00"/>
  <rect x="49.5" y="28" width="5.25" height="1.75" fill="#928F00"/>
  <rect x="49.5" y="22.75" width="5.25" height="1.75" fill="#928F00"/>
  <rect x="49.5" y="21" width="5.25" height="1.75" fill="#928F00"/>
  <rect x="53" y="19.25" width="1.75" height="1.75" fill="#928F00"/>
  <rect x="53" y="26.25" width="1.75" height="1.75" fill="#928F00"/>
  <rect x="51.25" y="24.5" width="1.75" height="1.75" fill="#928F00"/>
  <rect x="49.5" y="24.5" width="1.75" height="1.75" fill="#928F00"/>
  <rect x="47.75" y="26.25" width="1.75" height="1.75" fill="#928F00"/>
  <rect x="42.5" y="24.5" width="1.75" height="1.75" fill="#928F00"/>
  <rect x="44.25" y="24.5" width="1.75" height="1.75" fill="#928F00"/>
  <rect x="42.5" y="14" width="1.75" height="8.75" fill="#928F00"/>
  <rect x="39" y="14" width="1.75" height="5.25" fill="#928F00"/>
  <rect x="40.75" y="12.25" width="1.75" height="1.75" fill="#928F00"/>
  <rect x="39" y="10.5" width="1.75" height="1.75" fill="#928F00"/>
  <rect x="32" y="12.25" width="1.75" height="1.75" fill="#928F00"/>
  <rect x="30.25" y="19.25" width="1.75" height="1.75" fill="#928F00"/>
  <rect x="26.75" y="17.5" width="1.75" height="1.75" fill="#928F00"/>
  <rect x="23.25" y="15.75" width="1.75" height="1.75" fill="#928F00"/>
  <rect x="26.75" y="21" width="1.75" height="1.75" fill="#928F00"/>
  <rect x="23.25" y="19.25" width="1.75" height="1.75" fill="#928F00"/>
  <rect x="19.75" y="17.5" width="1.75" height="1.75" fill="#928F00"/>
  <rect x="19.75" y="28" width="1.75" height="1.75" fill="#928F00"/>
  <rect x="16.25" y="26.25" width="1.75" height="1.75" fill="#928F00"/>
  <rect x="12.75" y="24.5" width="1.75" height="1.75" fill="#928F00"/>
  <rect x="23.25" y="24.5" width="1.75" height="3.5" fill="#928F00"/>
  <rect x="19.75" y="22.75" width="1.75" height="3.5" fill="#928F00"/>
  <rect x="16.25" y="21" width="1.75" height="3.5" fill="#928F00"/>
  <rect x="26.75" y="8.75" width="1.75" height="5.25" fill="#928F00"/>
  <rect x="19.75" y="5.25" width="1.75" height="5.25" fill="#928F00"/>
  <rect width="1.75" height="1.75" transform="matrix(1 0 0 -1 21.5 7)" fill="#928F00"/>
  <rect width="1.75" height="5.25" transform="matrix(1 0 0 -1 18 12.25)" fill="#928F00"/>
  <rect width="1.75" height="5.25" transform="matrix(1 0 0 -1 16.25 14)" fill="#928F00"/>
  <rect width="1.75" height="1.75" transform="matrix(1 0 0 -1 14.5 12.25)" fill="#928F00"/>
  <rect width="1.75" height="1.75" transform="matrix(1 0 0 -1 12.75 19.25)" fill="#928F00"/>
  <rect width="1.75" height="1.75" transform="matrix(1 0 0 -1 12.75 10.5)" fill="#928F00"/>
  <rect width="1.75" height="7" transform="matrix(1 0 0 -1 11 14)" fill="#928F00"/>
  <rect width="1.75" height="1.75" transform="matrix(1 0 0 -1 12.75 7)" fill="#928F00"/>
  <rect width="1.75" height="1.75" transform="matrix(1 0 0 -1 14.5 5.25)" fill="#928F00"/>
  <rect width="1.75" height="1.75" transform="matrix(1 0 0 -1 16.25 3.5)" fill="#928F00"/>
  <rect width="8.75" height="1.75" transform="matrix(1 0 0 -1 18 1.75)" fill="#928F00"/>
  <rect width="1.75" height="1.75" transform="matrix(1 0 0 -1 26.75 1.75)" fill="#928F00"/>
  <rect width="5.25" height="1.75" transform="matrix(1 0 0 -1 28.5 3.5)" fill="#928F00"/>
  <rect width="5.25" height="1.75" transform="matrix(1 0 0 -1 33.75 5.25)" fill="#928F00"/>
  <rect width="3.5" height="1.75" transform="matrix(1 0 0 -1 39 7)" fill="#928F00"/>
  <rect width="1.75" height="1.75" transform="matrix(1 0 0 -1 42.5 8.75)" fill="#928F00"/>
  <rect width="3.5" height="1.75" transform="matrix(1 0 0 -1 44.25 10.5)" fill="#928F00"/>
  <rect width="1.75" height="1.75" transform="matrix(1 0 0 -1 47.75 12.25)" fill="#928F00"/>
  <rect width="1.75" height="1.75" transform="matrix(1 0 0 -1 49.5 14)" fill="#928F00"/>
  <rect width="1.75" height="1.75" transform="matrix(1 0 0 -1 51.25 15.75)" fill="#928F00"/>
  <rect width="1.75" height="1.75" transform="matrix(1 0 0 -1 53 17.5)" fill="#928F00"/>
  <rect width="1.75" height="1.75" transform="matrix(1 0 0 -1 11 21)" fill="#928F00"/>
  <rect width="1.75" height="1.75" transform="matrix(1 0 0 -1 9.25 22.75)" fill="#928F00"/>
  <rect width="1.75" height="1.75" transform="matrix(1 0 0 -1 7.5 24.5)" fill="#928F00"/>
  <rect width="1.75" height="7" transform="matrix(1 0 0 -1 5.75 31.5)" fill="#928F00"/>
  <rect x="30.25" y="10.5" width="1.75" height="3.5" fill="#928F00"/>
  <rect x="46" y="26.25" width="1.75" height="1.75" fill="#928F00"/>
  <rect width="1.75" height="1.75" transform="matrix(-1 0 0 1 9.25 28)" fill="#FEFB00"/>
  <rect width="1.75" height="1.75" transform="matrix(-1 0 0 1 12.75 28)" fill="#FEFB00"/>
  <rect width="1.75" height="1.75" transform="matrix(-1 0 0 1 19.75 31.5)" fill="#FEFB00"/>
  <rect width="1.75" height="1.75" transform="matrix(-1 0 0 1 11 29.75)" fill="#FEFB00"/>
  <rect width="1.75" height="1.75" transform="matrix(-1 0 0 1 14.5 29.75)" fill="#FEFB00"/>
  <rect width="1.75" height="1.75" transform="matrix(-1 0 0 1 21.5 33.25)" fill="#FEFB00"/>
  <rect width="1.75" height="1.75" transform="matrix(-1 0 0 1 12.75 31.5)" fill="#FEFB00"/>
  <rect width="1.75" height="1.75" transform="matrix(-1 0 0 1 16.25 31.5)" fill="#FEFB00"/>
  <rect width="1.75" height="1.75" transform="matrix(-1 0 0 1 23.25 35)" fill="#FEFB00"/>
  <rect width="1.75" height="1.75" transform="matrix(-1 0 0 1 14.5 33.25)" fill="#FEFB00"/>
  <rect width="1.75" height="1.75" transform="matrix(-1 0 0 1 18 33.25)" fill="#FEFB00"/>
  <rect width="1.75" height="1.75" transform="matrix(-1 0 0 1 19.75 35)" fill="#FEFB00"/>
  <rect width="1.75" height="1.75" transform="matrix(-1 0 0 1 25 29.75)" fill="#FEFB00"/>
  <rect width="1.75" height="1.75" transform="matrix(-1 0 0 1 26.75 31.5)" fill="#FEFB00"/>
  <rect width="1.75" height="1.75" transform="matrix(-1 0 0 1 28.5 29.75)" fill="#FEFB00"/>
  <rect width="1.75" height="1.75" transform="matrix(-1 0 0 1 30.25 28)" fill="#FEFB00"/>
  <rect width="1.75" height="1.75" transform="matrix(-1 0 0 1 32 26.25)" fill="#FEFB00"/>
  <rect width="1.75" height="1.75" transform="matrix(-1 0 0 1 33.75 24.5)" fill="#FEFB00"/>
  <rect width="1.75" height="1.75" transform="matrix(-1 0 0 1 35.5 22.75)" fill="#FEFB00"/>
  <rect width="1.75" height="1.75" transform="matrix(-1 0 0 1 37.25 21)" fill="#FEFB00"/>
  <rect width="1.75" height="1.75" transform="matrix(-1 0 0 1 35.5 19.25)" fill="#FEFB00"/>
  <rect width="1.75" height="1.75" transform="matrix(-1 0 0 1 33.75 17.5)" fill="#FEFB00"/>
  <rect width="1.75" height="1.75" transform="matrix(-1 0 0 1 32 15.75)" fill="#FEFB00"/>
  <rect width="1.75" height="1.75" transform="matrix(-1 0 0 1 30.25 14)" fill="#FEFB00"/>
  <rect width="1.75" height="1.75" transform="matrix(-1 0 0 1 30.25 17.5)" fill="#FEFB00"/>
  <rect width="1.75" height="1.75" transform="matrix(-1 0 0 1 28.5 15.75)" fill="#FEFB00"/>
  <rect width="1.75" height="1.75" transform="matrix(-1 0 0 1 26.75 14)" fill="#FEFB00"/>
  <rect width="1.75" height="1.75" transform="matrix(-1 0 0 1 26.75 15.75)" fill="#FEFB00"/>
  <rect width="1.75" height="1.75" transform="matrix(-1 0 0 1 25 12.25)" fill="#FEFB00"/>
  <rect width="1.75" height="1.75" transform="matrix(-1 0 0 1 21.5 14)" fill="#FEFB00"/>
  <rect width="1.75" height="1.75" transform="matrix(-1 0 0 1 21.5 12.25)" fill="#FEFB00"/>
  <rect width="1.75" height="1.75" transform="matrix(-1 0 0 1 16.25 14)" fill="#FEFB00"/>
  <rect width="1.75" height="1.75" transform="matrix(-1 0 0 1 16.25 12.25)" fill="#FEFB00"/>
  <rect width="1.75" height="1.75" transform="matrix(-1 0 0 1 16.25 8.75)" fill="#FEFB00"/>
  <rect width="1.75" height="1.75" transform="matrix(-1 0 0 1 16.25 7)" fill="#FEFB00"/>
  <rect width="1.75" height="1.75" transform="matrix(-1 0 0 1 18 5.25)" fill="#FEFB00"/>
  <rect width="1.75" height="1.75" transform="matrix(-1 0 0 1 19.75 3.5)" fill="#FEFB00"/>
  <rect width="1.75" height="1.75" transform="matrix(-1 0 0 1 21.5 1.75)" fill="#FEFB00"/>
  <rect width="1.75" height="1.75" transform="matrix(-1 0 0 1 23.25 1.75)" fill="#FEFB00"/>
  <rect width="1.75" height="1.75" transform="matrix(-1 0 0 1 25 1.75)" fill="#FEFB00"/>
  <rect width="1.75" height="1.75" transform="matrix(-1 0 0 1 26.75 1.75)" fill="#FEFB00"/>
  <rect width="1.75" height="1.75" transform="matrix(-1 0 0 1 28.5 1.75)" fill="#FEFB00"/>
  <rect width="1.75" height="1.75" transform="matrix(-1 0 0 1 30.25 3.5)" fill="#FEFB00"/>
  <rect width="1.75" height="1.75" transform="matrix(-1 0 0 1 32 3.5)" fill="#FEFB00"/>
  <rect width="1.75" height="1.75" transform="matrix(-1 0 0 1 33.75 3.5)" fill="#FEFB00"/>
  <rect width="1.75" height="1.75" transform="matrix(-1 0 0 1 35.5 5.25)" fill="#FEFB00"/>
  <rect width="1.75" height="1.75" transform="matrix(-1 0 0 1 37.25 5.25)" fill="#FEFB00"/>
  <rect width="1.75" height="1.75" transform="matrix(-1 0 0 1 39 5.25)" fill="#FEFB00"/>
  <rect width="1.75" height="1.75" transform="matrix(-1 0 0 1 39 7)" fill="#FEFB00"/>
  <rect width="1.75" height="1.75" transform="matrix(-1 0 0 1 40.75 7)" fill="#FEFB00"/>
  <rect width="1.75" height="1.75" transform="matrix(-1 0 0 1 42.5 7)" fill="#FEFB00"/>
  <rect width="1.75" height="1.75" transform="matrix(-1 0 0 1 42.5 8.75)" fill="#FEFB00"/>
  <rect width="1.75" height="1.75" transform="matrix(-1 0 0 1 44.25 8.75)" fill="#FEFB00"/>
  <rect width="1.75" height="1.75" transform="matrix(-1 0 0 1 44.25 10.5)" fill="#FEFB00"/>
  <rect width="1.75" height="1.75" transform="matrix(-1 0 0 1 46 12.25)" fill="#FEFB00"/>
  <rect width="1.75" height="1.75" transform="matrix(-1 0 0 1 47.75 14)" fill="#FEFB00"/>
  <rect width="1.75" height="1.75" transform="matrix(-1 0 0 1 49.5 15.75)" fill="#FEFB00"/>
  <rect width="1.75" height="1.75" transform="matrix(-1 0 0 1 51.25 17.5)" fill="#FEFB00"/>
  <rect width="1.75" height="1.75" transform="matrix(-1 0 0 1 53 15.75)" fill="#FEFB00"/>
  <rect width="1.75" height="1.75" transform="matrix(-1 0 0 1 51.25 14)" fill="#FEFB00"/>
  <rect width="1.75" height="1.75" transform="matrix(-1 0 0 1 49.5 12.25)" fill="#FEFB00"/>
  <rect width="1.75" height="1.75" transform="matrix(-1 0 0 1 47.75 10.5)" fill="#FEFB00"/>
  <rect width="1.75" height="1.75" transform="matrix(-1 0 0 1 46 15.75)" fill="#FEFB00"/>
  <rect width="1.75" height="1.75" transform="matrix(-1 0 0 1 46 17.5)" fill="#FEFB00"/>
  <rect width="1.75" height="1.75" transform="matrix(-1 0 0 1 47.75 19.25)" fill="#FEFB00"/>
  <rect width="1.75" height="1.75" transform="matrix(-1 0 0 1 46 21)" fill="#FEFB00"/>
  <rect width="1.75" height="1.75" transform="matrix(-1 0 0 1 47.75 22.75)" fill="#FEFB00"/>
  <rect width="1.75" height="1.75" transform="matrix(-1 0 0 1 40.75 19.25)" fill="#FEFB00"/>
  <rect width="1.75" height="1.75" transform="matrix(-1 0 0 1 39 19.25)" fill="#FEFB00"/>
  <rect width="1.75" height="1.75" transform="matrix(-1 0 0 1 37.25 17.5)" fill="#FEFB00"/>
  <rect width="1.75" height="1.75" transform="matrix(-1 0 0 1 37.25 14)" fill="white"/>
  <rect width="1.75" height="1.75" transform="matrix(-1 0 0 1 39 12.25)" fill="#FEFB00"/>
  <rect width="1.75" height="1.75" transform="matrix(-1 0 0 1 37.25 8.75)" fill="#FEFB00"/>
  <rect width="1.75" height="1.75" transform="matrix(-1 0 0 1 35.5 8.75)" fill="#FEFB00"/>
  <rect width="1.75" height="1.75" transform="matrix(-1 0 0 1 33.75 7)" fill="#FEFB00"/>
  <rect width="1.75" height="1.75" transform="matrix(-1 0 0 1 33.75 10.5)" fill="#FEFB00"/>
  <rect width="1.75" height="1.75" transform="matrix(-1 0 0 1 35.5 10.5)" fill="#FEFB00"/>
  <rect width="1.75" height="1.75" transform="matrix(-1 0 0 1 32 8.75)" fill="#FEFB00"/>
  <rect width="1.75" height="1.75" transform="matrix(-1 0 0 1 30.25 7)" fill="#FEFB00"/>
  <rect width="1.75" height="1.75" transform="matrix(-1 0 0 1 28.5 5.25)" fill="#FEFB00"/>
  <rect width="1.75" height="1.75" transform="matrix(-1 0 0 1 26.75 7)" fill="#FEFB00"/>
  <rect width="1.75" height="1.75" transform="matrix(-1 0 0 1 25 8.75)" fill="white"/>
  <rect width="1.75" height="1.75" transform="matrix(-1 0 0 1 47.75 28)" fill="#FEFB00"/>
  <rect width="1.75" height="1.75" transform="matrix(-1 0 0 1 47.75 29.75)" fill="#FEFB00"/>
  <rect width="1.75" height="1.75" transform="matrix(-1 0 0 1 23.25 14)" fill="#FEFB00"/>
  <rect width="1.75" height="1.75" transform="matrix(-1 0 0 1 19.75 15.75)" fill="#FEFB00"/>
  <rect width="1.75" height="1.75" transform="matrix(-1 0 0 1 18 17.5)" fill="#FEFB00"/>
  <rect width="1.75" height="1.75" transform="matrix(-1 0 0 1 16.25 19.25)" fill="#FEFB00"/>
  <rect width="1.75" height="1.75" transform="matrix(-1 0 0 1 14.5 21)" fill="#FEFB00"/>
  <rect width="1.75" height="1.75" transform="matrix(-1 0 0 1 12.75 22.75)" fill="#FEFB00"/>
  <rect width="1.75" height="1.75" transform="matrix(-1 0 0 1 12.75 24.5)" fill="#FEFB00"/>
  <rect width="1.75" height="1.75" transform="matrix(-1 0 0 1 9.25 24.5)" fill="#B5B5B5"/>
  <rect width="1.75" height="1.75" transform="matrix(-1 0 0 1 16.25 26.25)" fill="#FEFB00"/>
  <rect width="1.75" height="1.75" transform="matrix(-1 0 0 1 19.75 28)" fill="#FEFB00"/>
  <rect width="1.75" height="1.75" transform="matrix(-1 0 0 1 23.25 29.75)" fill="#FEFB00"/>
  <rect width="1.75" height="1.75" transform="matrix(-1 0 0 1 26.75 28)" fill="#FEFB00"/>
  <rect width="1.75" height="1.75" transform="matrix(-1 0 0 1 23.25 24.5)" fill="#FEFB00"/>
  <rect width="1.75" height="1.75" transform="matrix(-1 0 0 1 19.75 22.75)" fill="#FEFB00"/>
  <rect width="1.75" height="1.75" transform="matrix(-1 0 0 1 16.25 21)" fill="#FEFB00"/>
  <rect width="1.75" height="1.75" transform="matrix(-1 0 0 1 23.25 19.25)" fill="#FEFB00"/>
  <rect width="1.75" height="1.75" transform="matrix(-1 0 0 1 19.75 17.5)" fill="#FEFB00"/>
  <rect width="1.75" height="1.75" transform="matrix(-1 0 0 1 26.75 21)" fill="#FEFB00"/>
  <rect width="1.75" height="1.75" transform="matrix(-1 0 0 1 28.5 26.25)" fill="#FEFB00"/>
  <rect width="1.75" height="1.75" transform="matrix(-1 0 0 1 30.25 24.5)" fill="#FEFB00"/>
  <rect width="1.75" height="1.75" transform="matrix(-1 0 0 1 32 22.75)" fill="#FEFB00"/>
  <rect width="1.75" height="1.75" transform="matrix(-1 0 0 1 33.75 21)" fill="#FEFB00"/>
  <rect width="1.75" height="1.75" transform="matrix(-1 0 0 1 21.5 36.75)" fill="#FEFB00"/>
  <rect width="1.75" height="1.75" transform="matrix(-1 0 0 1 25 36.75)" fill="#FEFB00"/>
  <rect x="54.75" y="31.5" width="1.75" height="1.75" fill="black"/>
  <rect x="54.75" y="33.25" width="1.75" height="1.75" fill="black"/>
  <rect x="54.75" y="35" width="1.75" height="1.75" fill="black"/>
  <rect x="54.75" y="36.75" width="1.75" height="1.75" fill="black"/>
  <rect x="54.75" y="38.5" width="1.75" height="1.75" fill="black"/>
  <rect x="54.75" y="40.25" width="1.75" height="1.75" fill="black"/>
  <rect x="53" y="40.25" width="1.75" height="1.75" fill="black"/>
  <rect x="51.25" y="42" width="1.75" height="1.75" fill="black"/>
  <rect x="49.5" y="42" width="1.75" height="1.75" fill="black"/>
  <rect x="47.75" y="43.75" width="1.75" height="1.75" fill="black"/>
  <rect x="44.25" y="45.5" width="1.75" height="1.75" fill="black"/>
  <rect x="40.75" y="47.25" width="1.75" height="1.75" fill="black"/>
  <rect x="37.25" y="49" width="1.75" height="1.75" fill="black"/>
  <rect x="33.75" y="50.75" width="1.75" height="1.75" fill="black"/>
  <rect x="30.25" y="52.5" width="1.75" height="1.75" fill="black"/>
  <rect x="26.75" y="54.25" width="1.75" height="1.75" fill="black"/>
  <rect x="46" y="43.75" width="1.75" height="1.75" fill="black"/>
  <rect x="42.5" y="45.5" width="1.75" height="1.75" fill="black"/>
  <rect x="39" y="47.25" width="1.75" height="1.75" fill="black"/>
  <rect x="35.5" y="49" width="1.75" height="1.75" fill="black"/>
  <rect x="32" y="50.75" width="1.75" height="1.75" fill="black"/>
  <rect x="28.5" y="52.5" width="1.75" height="1.75" fill="black"/>
  <rect x="25" y="54.25" width="1.75" height="1.75" fill="black"/>
  <rect x="23.25" y="54.25" width="1.75" height="1.75" fill="black"/>
  <rect x="21.5" y="52.5" width="1.75" height="1.75" fill="black"/>
  <rect x="18" y="50.75" width="1.75" height="1.75" fill="black"/>
  <rect x="14.5" y="49" width="1.75" height="1.75" fill="black"/>
  <rect x="11" y="47.25" width="1.75" height="1.75" fill="black"/>
  <rect x="7.5" y="45.5" width="1.75" height="1.75" fill="black"/>
  <rect x="4" y="43.75" width="1.75" height="1.75" fill="black"/>
  <rect x="7.5" y="31.5" width="1.75" height="1.75" fill="black"/>
  <rect x="11" y="33.25" width="1.75" height="1.75" fill="black"/>
  <rect x="14.5" y="35" width="1.75" height="1.75" fill="black"/>
  <rect x="18" y="36.75" width="1.75" height="1.75" fill="black"/>
  <rect x="21.5" y="38.5" width="1.75" height="1.75" fill="black"/>
  <rect x="25" y="40.25" width="1.75" height="1.75" fill="black"/>
  <rect x="26.75" y="40.25" width="1.75" height="1.75" fill="black"/>
  <rect x="30.25" y="38.5" width="1.75" height="1.75" fill="black"/>
  <rect x="33.75" y="36.75" width="1.75" height="1.75" fill="black"/>
  <rect x="37.25" y="35" width="1.75" height="1.75" fill="black"/>
  <rect x="40.75" y="33.25" width="1.75" height="1.75" fill="black"/>
  <rect x="40.75" y="33.25" width="1.75" height="1.75" fill="black"/>
  <rect x="44.25" y="31.5" width="1.75" height="1.75" fill="black"/>
  <rect x="44.25" y="29.75" width="1.75" height="1.75" fill="black"/>
  <rect x="46" y="31.5" width="1.75" height="1.75" fill="black"/>
  <rect x="47.75" y="31.5" width="1.75" height="1.75" fill="black"/>
  <rect x="49.5" y="31.5" width="1.75" height="1.75" fill="black"/>
  <rect x="51.25" y="31.5" width="1.75" height="1.75" fill="black"/>
  <rect x="53" y="29.75" width="1.75" height="1.75" fill="black"/>
  <rect x="54.75" y="28" width="1.75" height="1.75" fill="black"/>
  <rect x="54.75" y="26.25" width="1.75" height="1.75" fill="black"/>
  <rect x="54.75" y="24.5" width="1.75" height="1.75" fill="black"/>
  <rect x="54.75" y="22.75" width="1.75" height="1.75" fill="black"/>
  <rect x="54.75" y="21" width="1.75" height="1.75" fill="black"/>
  <rect x="54.75" y="19.25" width="1.75" height="1.75" fill="black"/>
  <rect x="54.75" y="17.5" width="1.75" height="1.75" fill="black"/>
  <rect x="53" y="24.5" width="1.75" height="1.75" fill="black"/>
  <rect x="51.25" y="26.25" width="1.75" height="1.75" fill="black"/>
  <rect x="49.5" y="26.25" width="1.75" height="1.75" fill="black"/>
  <rect x="19.75" y="52.5" width="1.75" height="1.75" fill="black"/>
  <rect x="16.25" y="50.75" width="1.75" height="1.75" fill="black"/>
  <rect x="12.75" y="49" width="1.75" height="1.75" fill="black"/>
  <rect x="9.25" y="47.25" width="1.75" height="1.75" fill="black"/>
  <rect x="5.75" y="45.5" width="1.75" height="1.75" fill="black"/>
  <rect x="2.25" y="43.75" width="1.75" height="1.75" fill="black"/>
  <rect x="5.75" y="31.5" width="1.75" height="1.75" fill="black"/>
  <rect x="9.25" y="33.25" width="1.75" height="1.75" fill="black"/>
  <rect x="12.75" y="35" width="1.75" height="1.75" fill="black"/>
  <rect x="16.25" y="36.75" width="1.75" height="1.75" fill="black"/>
  <rect x="19.75" y="38.5" width="1.75" height="1.75" fill="black"/>
  <rect x="23.25" y="40.25" width="1.75" height="1.75" fill="black"/>
  <rect x="28.5" y="38.5" width="1.75" height="1.75" fill="black"/>
  <rect x="32" y="36.75" width="1.75" height="1.75" fill="black"/>
  <rect x="35.5" y="35" width="1.75" height="1.75" fill="black"/>
  <rect x="39" y="33.25" width="1.75" height="1.75" fill="black"/>
  <rect x="42.5" y="31.5" width="1.75" height="1.75" fill="black"/>
  <rect x="42.5" y="29.75" width="1.75" height="1.75" fill="black"/>
  <rect x="42.5" y="28" width="1.75" height="1.75" fill="black"/>
  <rect x="40.75" y="26.25" width="1.75" height="1.75" fill="black"/>
  <rect x="40.75" y="24.5" width="1.75" height="1.75" fill="black"/>
  <rect x="40.75" y="22.75" width="1.75" height="1.75" fill="black"/>
  <rect x="42.5" y="22.75" width="1.75" height="1.75" fill="black"/>
  <rect x="40.75" y="21" width="1.75" height="1.75" fill="black"/>
  <rect x="40.75" y="19.25" width="1.75" height="1.75" fill="black"/>
  <rect x="40.75" y="17.5" width="1.75" height="1.75" fill="black"/>
  <rect x="40.75" y="15.75" width="1.75" height="1.75" fill="black"/>
  <rect x="40.75" y="14" width="1.75" height="1.75" fill="black"/>
  <rect x="39" y="12.25" width="1.75" height="1.75" fill="black"/>
  <rect x="37.25" y="10.5" width="1.75" height="1.75" fill="black"/>
  <rect x="35.5" y="10.5" width="1.75" height="1.75" fill="black"/>
  <rect x="33.75" y="12.25" width="1.75" height="1.75" fill="black"/>
  <rect x="32" y="14" width="1.75" height="1.75" fill="black"/>
  <rect x="33.75" y="14" width="1.75" height="1.75" fill="black"/>
  <rect x="33.75" y="15.75" width="1.75" height="1.75" fill="black"/>
  <rect x="30.25" y="14" width="1.75" height="1.75" fill="black"/>
  <rect x="28.5" y="12.25" width="1.75" height="1.75" fill="black"/>
  <rect x="28.5" y="10.5" width="1.75" height="1.75" fill="black"/>
  <rect x="28.5" y="8.75" width="1.75" height="1.75" fill="black"/>
  <rect x="26.75" y="7" width="1.75" height="1.75" fill="black"/>
  <rect x="25" y="5.25" width="1.75" height="1.75" fill="black"/>
  <rect x="23.25" y="5.25" width="1.75" height="1.75" fill="black"/>
  <rect x="21.5" y="7" width="1.75" height="1.75" fill="black"/>
  <rect x="21.5" y="8.75" width="1.75" height="1.75" fill="black"/>
  <rect x="21.5" y="10.5" width="1.75" height="1.75" fill="black"/>
  <rect x="19.75" y="10.5" width="1.75" height="1.75" fill="black"/>
  <rect x="18" y="12.25" width="1.75" height="1.75" fill="black"/>
  <rect x="16.25" y="14" width="1.75" height="1.75" fill="black"/>
  <rect x="25" y="19.25" width="1.75" height="1.75" fill="black"/>
  <rect x="21.5" y="22.75" width="1.75" height="1.75" fill="black"/>
  <rect x="18" y="26.25" width="1.75" height="1.75" fill="black"/>
  <rect x="28.5" y="21" width="1.75" height="1.75" fill="black"/>
  <rect x="25" y="24.5" width="1.75" height="1.75" fill="black"/>
  <rect x="21.5" y="28" width="1.75" height="1.75" fill="black"/>
  <rect x="21.5" y="17.5" width="1.75" height="1.75" fill="black"/>
  <rect x="18" y="21" width="1.75" height="1.75" fill="black"/>
  <rect x="14.5" y="24.5" width="1.75" height="1.75" fill="black"/>
  <rect x="14.5" y="15.75" width="1.75" height="1.75" fill="black"/>
  <rect x="12.75" y="14" width="1.75" height="1.75" fill="black"/>
  <path d="M23.25 52.5H26.75V45.5H28.5V43.75H32V42H35.5V40.25H39V38.5H42.5V36.75H46V35H49.5V33.25H53V31.5H54.75V40.25H53V42H49.5V43.75H46V45.5H42.5V47.25H39V49H35.5V50.75H32V52.5H28.5V54.25H23.25V52.5Z" fill="#919191"/>
  <rect x="19.75" y="50.75" width="3.5" height="1.75" fill="#919191"/>
  <rect x="25" y="42" width="3.5" height="1.75" fill="#919191"/>
  <rect x="28.5" y="40.25" width="3.5" height="1.75" fill="#919191"/>
  <rect x="32" y="38.5" width="3.5" height="1.75" fill="#919191"/>
  <rect x="35.5" y="36.75" width="3.5" height="1.75" fill="#919191"/>
  <rect x="39" y="35" width="3.5" height="1.75" fill="#919191"/>
  <rect x="42.5" y="33.25" width="3.5" height="1.75" fill="#919191"/>
  <rect x="37.25" y="22.75" width="1.75" height="1.75" fill="#919191"/>
  <rect x="35.5" y="24.5" width="1.75" height="1.75" fill="#919191"/>
  <rect x="26.75" y="22.75" width="1.75" height="1.75" fill="#919191"/>
  <rect x="23.25" y="21" width="1.75" height="1.75" fill="#919191"/>
  <rect x="19.75" y="19.25" width="1.75" height="1.75" fill="#919191"/>
  <rect x="16.25" y="49" width="3.5" height="1.75" fill="#919191"/>
  <rect x="12.75" y="47.25" width="3.5" height="1.75" fill="#919191"/>
  <rect x="9.25" y="45.5" width="3.5" height="1.75" fill="#919191"/>
  <rect x="5.75" y="43.75" width="3.5" height="1.75" fill="#919191"/>
  <rect x="2.25" y="42" width="3.5" height="1.75" fill="#919191"/>
  <rect x="2.25" y="31.5" width="1.75" height="1.75" fill="#919191"/>
  <rect x="4" y="29.75" width="1.75" height="1.75" fill="#919191"/>
  <rect x="0.5" y="33.25" width="1.75" height="10.5" fill="#919191"/>
  <rect x="4" y="35" width="1.75" height="1.75" fill="#CDCBCC"/>
  <rect x="4" y="35" width="1.75" height="7" fill="#CDCBCC"/>
  <rect x="5.75" y="36.75" width="1.75" height="7" fill="#CDCBCC"/>
  <rect x="7.5" y="36.75" width="1.75" height="1.75" fill="#CDCBCC"/>
  <rect x="7.5" y="29.75" width="1.75" height="1.75" fill="#FEFB00"/>
  <rect x="12.75" y="31.5" width="1.75" height="1.75" fill="#FEFB00"/>
  <rect x="18" y="33.25" width="1.75" height="1.75" fill="#FEFB00"/>
  <rect x="21.5" y="33.25" width="1.75" height="1.75" fill="#FEFB00"/>
  <rect x="21.5" y="36.75" width="1.75" height="1.75" fill="#FEFB00"/>
  <rect x="14.5" y="29.75" width="1.75" height="1.75" fill="#FEFB00"/>
  <rect x="9.25" y="28" width="1.75" height="1.75" fill="#FEFB00"/>
  <rect x="7.5" y="26.25" width="1.75" height="1.75" fill="#FEFB00"/>
  <rect x="9.25" y="22.75" width="1.75" height="1.75" fill="#CDCBCC"/>
  <rect x="11" y="21" width="1.75" height="1.75" fill="#CDCBCC"/>
  <rect x="12.75" y="19.25" width="1.75" height="1.75" fill="#CDCBCC"/>
  <rect x="14.5" y="17.5" width="1.75" height="1.75" fill="#CDCBCC"/>
  <rect x="16.25" y="15.75" width="1.75" height="1.75" fill="#CDCBCC"/>
  <rect x="18" y="14" width="1.75" height="1.75" fill="#CDCBCC"/>
  <rect x="16.25" y="35" width="1.75" height="1.75" fill="#FEFB00"/>
  <rect x="9.25" y="31.5" width="1.75" height="1.75" fill="#FEFB00"/>
  <rect x="14.5" y="33.25" width="1.75" height="1.75" fill="#FEFB00"/>
  <rect x="19.75" y="35" width="1.75" height="1.75" fill="#FEFB00"/>
  <rect x="23.25" y="35" width="1.75" height="1.75" fill="#FEFB00"/>
  <rect x="25" y="33.25" width="1.75" height="1.75" fill="#CDCBCC"/>
  <rect x="26.75" y="31.5" width="1.75" height="1.75" fill="#CDCBCC"/>
  <rect x="28.5" y="29.75" width="1.75" height="1.75" fill="#CDCBCC"/>
  <rect x="30.25" y="28" width="1.75" height="1.75" fill="#CDCBCC"/>
  <rect x="32" y="26.25" width="1.75" height="1.75" fill="#CDCBCC"/>
  <rect x="33.75" y="24.5" width="1.75" height="1.75" fill="#CDCBCC"/>
  <rect x="30.25" y="21" width="1.75" height="1.75" fill="#CDCBCC"/>
  <rect x="28.5" y="22.75" width="1.75" height="1.75" fill="#CDCBCC"/>
  <rect x="35.5" y="24.5" width="1.75" height="1.75" fill="#CDCBCC"/>
  <rect x="37.25" y="22.75" width="1.75" height="1.75" fill="#CDCBCC"/>
  <rect x="39" y="21" width="1.75" height="1.75" fill="#CDCBCC"/>
  <rect x="37.25" y="17.5" width="1.75" height="1.75" fill="#CDCBCC"/>
  <rect x="25" y="12.25" width="1.75" height="1.75" fill="#CDCBCC"/>
  <rect x="47.75" y="24.5" width="1.75" height="1.75" fill="#CDCBCC"/>
  <rect x="47.75" y="28" width="1.75" height="1.75" fill="#CDCBCC"/>
  <rect x="37.25" y="15.75" width="1.75" height="1.75" fill="#CDCBCC"/>
  <rect x="25" y="10.5" width="1.75" height="1.75" fill="#CDCBCC"/>
  <rect x="47.75" y="22.75" width="1.75" height="1.75" fill="#CDCBCC"/>
  <rect x="37.25" y="14" width="1.75" height="1.75" fill="#CDCBCC"/>
  <rect x="25" y="8.75" width="1.75" height="1.75" fill="#CDCBCC"/>
  <rect x="47.75" y="21" width="1.75" height="1.75" fill="#CDCBCC"/>
  <rect x="51.25" y="19.25" width="1.75" height="1.75" fill="#CDCBCC"/>
  <rect x="53" y="17.5" width="1.75" height="1.75" fill="#CDCBCC"/>
  <rect x="25" y="26.25" width="1.75" height="1.75" fill="#CDCBCC"/>
  <rect x="23.25" y="28" width="1.75" height="1.75" fill="#CDCBCC"/>
  <rect x="23.25" y="38.5" width="1.75" height="1.75" fill="#FEFB00"/>
  <rect x="16.25" y="31.5" width="1.75" height="1.75" fill="#FEFB00"/>
  <rect x="11" y="29.75" width="1.75" height="1.75" fill="#FEFB00"/>
  <rect x="11" y="38.5" width="1.75" height="1.75" fill="#CDCBCC"/>
  <rect x="14.5" y="40.25" width="1.75" height="1.75" fill="#CDCBCC"/>
  <rect x="18" y="42" width="1.75" height="1.75" fill="#CDCBCC"/>
  <rect x="21.5" y="43.75" width="1.75" height="1.75" fill="#CDCBCC"/>
  <rect x="21.5" y="49" width="1.75" height="1.75" fill="#CDCBCC"/>
  <rect x="18" y="47.25" width="1.75" height="1.75" fill="#CDCBCC"/>
  <rect x="14.5" y="45.5" width="1.75" height="1.75" fill="#CDCBCC"/>
  <rect x="11" y="43.75" width="1.75" height="1.75" fill="#CDCBCC"/>
  <rect x="7.5" y="42" width="1.75" height="1.75" fill="#CDCBCC"/>
  <rect x="9.25" y="38.5" width="1.75" height="7" fill="#CDCBCC"/>
  <rect x="12.75" y="40.25" width="1.75" height="7" fill="#CDCBCC"/>
  <rect x="16.25" y="42" width="1.75" height="7" fill="#CDCBCC"/>
  <rect x="19.75" y="43.75" width="1.75" height="7" fill="#CDCBCC"/>
  <rect x="23.25" y="45.5" width="1.75" height="7" fill="#CDCBCC"/>
  <rect x="25" y="45.5" width="1.75" height="7" fill="#CDCBCC"/>
  <rect x="26.75" y="43.75" width="1.75" height="1.75" fill="#CDCDCF"/>
  <rect x="23.25" y="42" width="1.75" height="1.75" fill="#CCCACB"/>
  <rect x="19.75" y="40.25" width="1.75" height="1.75" fill="#CCCACB"/>
  <rect x="16.25" y="38.5" width="1.75" height="1.75" fill="#CCCACB"/>
  <rect x="12.75" y="36.75" width="1.75" height="1.75" fill="#CCCACB"/>
  <rect x="9.25" y="35" width="1.75" height="1.75" fill="#CCCACB"/>
  <rect x="5.75" y="33.25" width="1.75" height="1.75" fill="#CCCACB"/>
  <rect x="4" y="31.5" width="1.75" height="1.75" fill="#CCCACB"/>
  <rect x="21.5" y="40.25" width="1.75" height="1.75" fill="#CCCACB"/>
  <rect x="18" y="38.5" width="1.75" height="1.75" fill="#CCCACB"/>
  <rect x="14.5" y="36.75" width="1.75" height="1.75" fill="#CCCACB"/>
  <rect x="11" y="35" width="1.75" height="1.75" fill="#CCCACB"/>
  <rect x="7.5" y="33.25" width="1.75" height="1.75" fill="#CCCACB"/>
  <rect x="28.5" y="42" width="1.75" height="1.75" fill="#CDCDCF"/>
  <rect x="32" y="40.25" width="1.75" height="1.75" fill="#CDCDCF"/>
  <rect x="35.5" y="38.5" width="1.75" height="1.75" fill="#CDCDCF"/>
  <rect x="39" y="36.75" width="1.75" height="1.75" fill="#CDCDCF"/>
  <rect x="42.5" y="35" width="1.75" height="1.75" fill="#CDCDCF"/>
  <rect x="46" y="33.25" width="1.75" height="1.75" fill="#CDCDCF"/>
  <rect x="30.25" y="42" width="1.75" height="1.75" fill="#CDCDCF"/>
  <rect x="33.75" y="40.25" width="1.75" height="1.75" fill="#CDCDCF"/>
  <rect x="37.25" y="38.5" width="1.75" height="1.75" fill="#CDCDCF"/>
  <rect x="40.75" y="36.75" width="1.75" height="1.75" fill="#CDCDCF"/>
  <rect x="44.25" y="35" width="1.75" height="1.75" fill="#CDCDCF"/>
  <rect x="47.75" y="33.25" width="1.75" height="1.75" fill="#CDCDCF"/>
  <rect x="21.5" y="45.5" width="1.75" height="3.5" fill="#919191"/>
  <rect x="18" y="43.75" width="1.75" height="3.5" fill="#919191"/>
  <rect x="14.5" y="42" width="1.75" height="3.5" fill="#919191"/>
  <rect x="11" y="40.25" width="1.75" height="3.5" fill="#919191"/>
  <rect x="7.5" y="38.5" width="1.75" height="3.5" fill="#919191"/>
  <rect x="12.75" y="22.75" width="3.5" height="1.75" fill="white"/>
  <rect x="16.25" y="19.25" width="3.5" height="1.75" fill="white"/>
  <rect x="19.75" y="15.75" width="3.5" height="1.75" fill="white"/>
  <rect x="16.25" y="24.5" width="3.5" height="1.75" fill="white"/>
  <rect x="9.25" y="24.5" width="1.75" height="1.75" fill="#FEFB00"/>
  <rect x="9.25" y="26.25" width="1.75" height="1.75" fill="#B5B5B5"/>
  <rect x="11" y="26.25" width="1.75" height="1.75" fill="#B5B5B5"/>
  <rect x="12.75" y="26.25" width="1.75" height="1.75" fill="#FEFB00"/>
  <rect x="12.75" y="28" width="1.75" height="1.75" fill="#B5B5B5"/>
  <rect x="14.5" y="28" width="1.75" height="1.75" fill="#B5B5B5"/>
  <rect x="16.25" y="28" width="1.75" height="1.75" fill="#FEFB00"/>
  <rect x="16.25" y="29.75" width="1.75" height="1.75" fill="#B5B5B5"/>
  <rect x="18" y="29.75" width="1.75" height="1.75" fill="#B5B5B5"/>
  <rect x="19.75" y="29.75" width="1.75" height="1.75" fill="#FEFB00"/>
  <rect x="19.75" y="31.5" width="1.75" height="1.75" fill="#B5B5B5"/>
  <rect x="21.5" y="31.5" width="1.75" height="1.75" fill="#B5B5B5"/>
  <rect x="23.25" y="31.5" width="1.75" height="1.75" fill="#FEFB00"/>
  <rect x="25" y="29.75" width="1.75" height="1.75" fill="#FEFB00"/>
  <rect x="26.75" y="28" width="1.75" height="1.75" fill="#FEFB00"/>
  <rect x="28.5" y="26.25" width="1.75" height="1.75" fill="#FEFB00"/>
  <rect x="30.25" y="24.5" width="1.75" height="1.75" fill="#FEFB00"/>
  <rect x="32" y="22.75" width="1.75" height="1.75" fill="#FEFB00"/>
  <rect x="33.75" y="21" width="1.75" height="1.75" fill="#FEFB00"/>
  <rect x="35.5" y="22.75" width="1.75" height="1.75" fill="white"/>
  <rect x="32" y="19.25" width="1.75" height="1.75" fill="#FEFB00"/>
  <rect x="30.25" y="17.5" width="1.75" height="1.75" fill="#FEFB00"/>
  <rect x="28.5" y="15.75" width="1.75" height="1.75" fill="#FEFB00"/>
  <rect x="26.75" y="14" width="1.75" height="1.75" fill="#FEFB00"/>
  <rect x="23.25" y="10.5" width="1.75" height="1.75" fill="#FEFB00"/>
  <rect x="23.25" y="14" width="1.75" height="1.75" fill="#FEFB00"/>
  <rect x="21.5" y="12.25" width="1.75" height="1.75" fill="#FEFB00"/>
  <rect x="18" y="14" width="1.75" height="1.75" fill="#FEFB00"/>
  <rect x="12.75" y="12.25" width="1.75" height="1.75" fill="white"/>
  <rect x="12.75" y="10.5" width="1.75" height="1.75" fill="white"/>
  <rect x="16.25" y="7" width="1.75" height="1.75" fill="#FEFB00"/>
  <rect x="14.5" y="5.25" width="1.75" height="1.75" fill="#FEFB00"/>
  <rect x="18" y="5.25" width="1.75" height="1.75" fill="#FEFB00"/>
  <rect x="16.25" y="3.5" width="1.75" height="1.75" fill="#FEFB00"/>
  <rect x="19.75" y="3.5" width="1.75" height="1.75" fill="white"/>
  <rect x="21.5" y="3.5" width="1.75" height="1.75" fill="white"/>
  <rect x="23.25" y="3.5" width="1.75" height="1.75" fill="white"/>
  <rect x="25" y="3.5" width="1.75" height="1.75" fill="white"/>
  <rect x="26.75" y="3.5" width="1.75" height="1.75" fill="white"/>
  <rect x="28.5" y="5.25" width="1.75" height="1.75" fill="white"/>
  <rect x="30.25" y="5.25" width="1.75" height="1.75" fill="white"/>
  <rect x="32" y="5.25" width="1.75" height="1.75" fill="white"/>
  <rect x="30.25" y="7" width="1.75" height="1.75" fill="white"/>
  <rect x="32" y="8.75" width="1.75" height="1.75" fill="white"/>
  <rect x="33.75" y="7" width="1.75" height="1.75" fill="white"/>
  <rect x="35.5" y="7" width="1.75" height="1.75" fill="white"/>
  <rect x="37.25" y="8.75" width="1.75" height="1.75" fill="white"/>
  <rect x="39" y="8.75" width="1.75" height="1.75" fill="white"/>
  <rect x="40.75" y="10.5" width="1.75" height="1.75" fill="white"/>
  <rect x="42.5" y="12.25" width="1.75" height="1.75" fill="white"/>
  <rect x="44.25" y="14" width="1.75" height="1.75" fill="white"/>
  <rect x="46" y="15.75" width="1.75" height="1.75" fill="#928F00"/>
  <rect x="47.75" y="17.5" width="1.75" height="1.75" fill="#928F00"/>
  <rect x="46" y="17.5" width="1.75" height="1.75" fill="#928F00"/>
  <rect x="44.25" y="19.25" width="1.75" height="1.75" fill="white"/>
  <rect x="46" y="21" width="1.75" height="1.75" fill="white"/>
  <rect x="44.25" y="22.75" width="1.75" height="1.75" fill="white"/>
  <rect x="46" y="24.5" width="1.75" height="1.75" fill="white"/>
  <rect x="44.25" y="26.25" width="1.75" height="1.75" fill="white"/>
  <rect x="44.25" y="28" width="1.75" height="1.75" fill="white"/>
  <rect x="49.5" y="15.75" width="1.75" height="1.75" fill="#928F00"/>
  <rect x="46" y="12.25" width="1.75" height="1.75" fill="white"/>
  <rect x="49.5" y="19.25" width="1.75" height="1.75" fill="#928F00"/>
  <rect x="47.75" y="19.25" width="1.75" height="1.75" fill="#928F00"/>
  <rect x="51.25" y="17.5" width="1.75" height="1.75" fill="#928F00"/>
  <rect x="47.75" y="14" width="1.75" height="1.75" fill="#928F00"/>
  <rect x="44.25" y="10.5" width="1.75" height="1.75" fill="white"/>
  <rect x="18" y="1.75" width="1.75" height="1.75" fill="white"/>
  <rect x="12.75" y="7" width="1.75" height="1.75" fill="#FEFB00"/>
  <rect x="23.25" y="7" width="1.75" height="1.75" fill="white"/>
  <rect x="35.5" y="19.25" width="1.75" height="1.75" fill="#FFFFFE"/>
  <rect x="37.25" y="21" width="1.75" height="1.75" fill="#FFFFFE"/>
  <rect x="33.75" y="17.5" width="1.75" height="1.75" fill="#FEFB00"/>
  <rect x="32" y="15.75" width="1.75" height="1.75" fill="#FEFB00"/>
  <rect x="23.25" y="33.25" width="1.75" height="1.75" fill="#B5B5B5"/>
  <rect x="19.75" y="21" width="3.5" height="1.75" fill="white"/>
  <rect x="23.25" y="17.5" width="3.5" height="1.75" fill="white"/>
  <rect x="19.75" y="26.25" width="3.5" height="1.75" fill="white"/>
  <rect x="23.25" y="22.75" width="3.5" height="1.75" fill="white"/>
  <rect x="26.75" y="19.25" width="3.5" height="1.75" fill="white"/>
  <rect x="35.5" y="15.75" width="1.75" height="1.75" fill="white"/>
  <rect x="35.5" y="12.25" width="1.75" height="1.75" fill="#FEFB00"/>
  <rect x="23.25" y="43.75" width="3.5" height="1.75" fill="#FFFFFD"/>
  <rect x="19.75" y="42" width="3.5" height="1.75" fill="#FFFFFD"/>
  <rect x="16.25" y="40.25" width="3.5" height="1.75" fill="#FFFFFD"/>
  <rect x="12.75" y="38.5" width="3.5" height="1.75" fill="#FFFFFD"/>
  <rect x="9.25" y="36.75" width="3.5" height="1.75" fill="#FFFFFD"/>
  <rect x="5.75" y="35" width="3.5" height="1.75" fill="#FFFFFD"/>
  <rect x="2.25" y="33.25" width="3.5" height="1.75" fill="#FFFFFD"/>
  <rect x="2.25" y="35" width="1.75" height="1.75" fill="#FFFFFD"/>
  <rect x="2.25" y="36.75" width="1.75" height="1.75" fill="#FFFFFD"/>
  <rect x="2.25" y="38.5" width="1.75" height="1.75" fill="#FFFFFD"/>
  <rect x="2.25" y="40.25" width="1.75" height="1.75" fill="#FFFFFD"/>
  <rect x="26.75" y="24.5" width="1.75" height="1.75" fill="white"/>
</svg>
