<svg width="65" height="53" viewBox="0 0 65 53" fill="none" xmlns="http://www.w3.org/2000/svg">
  <rect x="2.03125" y="50.7812" width="60.9375" height="2.03125" fill="#333300"/>
  <rect x="62.9688" y="14.2188" width="2.03125" height="36.5625" fill="#333300"/>
  <rect x="60.9375" y="12.1875" width="2.03125" height="2.03125" fill="black"/>
  <rect x="58.9062" y="10.1562" width="2.03125" height="2.03125" fill="black"/>
  <rect x="32.5" y="6.09375" width="2.03125" height="2.03125" fill="black"/>
  <rect x="30.4688" y="4.0625" width="2.03125" height="2.03125" fill="black"/>
  <rect x="28.4375" y="2.03125" width="2.03125" height="2.03125" fill="black"/>
  <rect x="26.4062" width="2.03125" height="2.03125" fill="black"/>
  <rect x="32.5" y="8.125" width="26.4062" height="2.03125" fill="#9D9A01"/>
  <rect x="30.4688" y="6.09375" width="2.03125" height="2.03125" fill="#9D9A01"/>
  <rect x="28.4375" y="4.0625" width="2.03125" height="2.03125" fill="#9D9A01"/>
  <rect x="26.4062" y="2.03125" width="2.03125" height="2.03125" fill="#9D9A01"/>
  <rect x="6.09375" y="2.03125" width="2.03125" height="2.03125" fill="#9D9A01"/>
  <rect x="4.0625" y="4.0625" width="2.03125" height="2.03125" fill="#9D9A01"/>
  <rect x="2.03125" y="6.09375" width="2.03125" height="2.03125" fill="#9D9A01"/>
  <rect y="8.125" width="2.03125" height="42.6562" fill="#9D9A01"/>
  <rect x="8.125" width="18.2812" height="2.03125" fill="#9D9A01"/>
  <rect x="2.03125" y="10.1562" width="54.8438" height="2.03125" fill="white"/>
  <rect width="30.4688" height="2.03125" transform="matrix(1 0 0 -1 2.03125 10.1562)" fill="#CCCA66"/>
  <rect x="2.03125" y="12.1875" width="2.03125" height="36.5625" fill="white"/>
  <rect x="2.03125" y="48.75" width="60.9375" height="2.03125" fill="#CCCA66"/>
  <rect x="60.9375" y="14.2188" width="2.03125" height="34.5312" fill="#CCCA66"/>
  <path d="M4.0625 12.1875H56.875H58.9062V14.2187H60.9375V16.25V48.75H4.0625V12.1875Z" fill="#FEFF99"/>
  <rect x="56.875" y="10.1562" width="2.03125" height="2.03125" fill="#CCCA66"/>
  <rect x="58.9062" y="12.1875" width="2.03125" height="2.03125" fill="#CCCA66"/>
  <rect x="4.0625" y="6.09375" width="2.03125" height="2.03125" fill="white"/>
  <rect x="6.09375" y="4.0625" width="2.03125" height="2.03125" fill="white"/>
  <rect x="8.125" y="2.03125" width="2.03125" height="2.03125" fill="white"/>
  <path d="M10.1562 2.03125H26.4062V4.0625H28.4375V6.09375H30.4688V8.125H6.09375V6.09375H8.125V4.0625H10.1562V2.03125Z" fill="#FEFF99"/>
</svg>
