<svg width="57" height="56" viewBox="0 0 57 56" fill="none" xmlns="http://www.w3.org/2000/svg">
  <rect x="42.5" y="5.25" width="1.75" height="1.75" fill="black"/>
  <rect x="44.25" y="7" width="1.75" height="1.75" fill="black"/>
  <rect x="46" y="8.75" width="1.75" height="1.75" fill="black"/>
  <rect x="47.75" y="10.5" width="1.75" height="1.75" fill="black"/>
  <rect x="49.5" y="12.25" width="1.75" height="3.5" fill="black"/>
  <rect x="51.25" y="15.75" width="1.75" height="3.5" fill="black"/>
  <rect x="53" y="19.25" width="1.75" height="15.75" fill="black"/>
  <rect x="49.5" y="38.5" width="1.75" height="3.5" fill="black"/>
  <rect x="51.25" y="35" width="1.75" height="3.5" fill="black"/>
  <rect x="44.25" y="29.75" width="1.75" height="5.25" fill="black"/>
  <rect x="42.5" y="26.25" width="1.75" height="3.5" fill="black"/>
  <rect x="40.75" y="24.5" width="1.75" height="1.75" fill="black"/>
  <rect x="39" y="22.75" width="1.75" height="1.75" fill="black"/>
  <rect x="42.5" y="35" width="1.75" height="3.5" fill="black"/>
  <rect x="40.75" y="38.5" width="1.75" height="1.75" fill="black"/>
  <rect x="44.25" y="38.5" width="1.75" height="1.75" fill="black"/>
  <rect x="46" y="40.25" width="1.75" height="1.75" fill="black"/>
  <rect x="47.75" y="42" width="1.75" height="1.75" fill="black"/>
  <rect x="49.5" y="43.75" width="1.75" height="1.75" fill="black"/>
  <rect x="51.25" y="45.5" width="1.75" height="1.75" fill="black"/>
  <rect x="53" y="47.25" width="1.75" height="1.75" fill="black"/>
  <rect x="54.75" y="49" width="1.75" height="5.25" fill="black"/>
  <rect x="37.25" y="40.25" width="3.5" height="1.75" fill="black"/>
  <rect x="28.5" y="40.25" width="3.5" height="1.75" fill="black"/>
  <rect x="16.25" y="50.75" width="3.5" height="1.75" fill="black"/>
  <rect x="12.75" y="49" width="3.5" height="1.75" fill="black"/>
  <rect x="35.5" y="50.75" width="3.5" height="1.75" fill="black"/>
  <rect x="39" y="49" width="3.5" height="1.75" fill="black"/>
  <rect x="49.5" y="54.25" width="5.25" height="1.75" fill="black"/>
  <rect x="32" y="42" width="5.25" height="1.75" fill="black"/>
  <rect x="19.75" y="52.5" width="15.75" height="1.75" fill="black"/>
  <rect x="11" y="47.25" width="1.75" height="1.75" fill="black"/>
  <rect x="9.25" y="45.5" width="1.75" height="1.75" fill="black"/>
  <rect x="7.5" y="43.75" width="1.75" height="1.75" fill="black"/>
  <rect x="5.75" y="42" width="1.75" height="1.75" fill="black"/>
  <rect x="4" y="38.5" width="1.75" height="3.5" fill="black"/>
  <rect x="2.25" y="35" width="1.75" height="3.5" fill="black"/>
  <rect x="0.5" y="19.25" width="1.75" height="15.75" fill="black"/>
  <rect x="2.25" y="15.75" width="1.75" height="3.5" fill="black"/>
  <rect x="4" y="12.25" width="1.75" height="3.5" fill="black"/>
  <rect x="5.75" y="10.5" width="1.75" height="1.75" fill="black"/>
  <rect x="7.5" y="8.75" width="1.75" height="1.75" fill="black"/>
  <rect x="9.25" y="7" width="1.75" height="1.75" fill="black"/>
  <rect x="11" y="5.25" width="1.75" height="1.75" fill="black"/>
  <rect x="12.75" y="3.5" width="3.5" height="1.75" fill="black"/>
  <rect x="16.25" y="1.75" width="3.5" height="1.75" fill="black"/>
  <rect x="19.75" width="15.75" height="1.75" fill="black"/>
  <rect x="35.5" y="1.75" width="3.5" height="1.75" fill="black"/>
  <rect x="39" y="3.5" width="3.5" height="1.75" fill="black"/>
  <rect x="23.25" y="29.75" width="1.75" height="5.25" fill="black"/>
  <rect x="25" y="26.25" width="1.75" height="3.5" fill="black"/>
  <rect x="26.75" y="24.5" width="1.75" height="1.75" fill="black"/>
  <rect x="28.5" y="22.75" width="3.5" height="1.75" fill="black"/>
  <rect x="32" y="21" width="5.25" height="1.75" fill="black"/>
  <rect x="37.25" y="22.75" width="1.75" height="1.75" fill="black"/>
  <rect x="25" y="35" width="1.75" height="3.5" fill="black"/>
  <rect x="26.75" y="38.5" width="1.75" height="1.75" fill="black"/>
  <rect x="37.25" y="42" width="1.75" height="1.75" fill="black"/>
  <rect x="39" y="43.75" width="1.75" height="1.75" fill="black"/>
  <rect x="42.5" y="38.5" width="1.75" height="3.5" fill="black"/>
  <rect x="44.25" y="40.25" width="1.75" height="3.5" fill="black"/>
  <path d="M16.25 12.25H18V10.5H19.75V8.75H21.5V10.5H23.25V8.75H25V3.5H30.25V5.25H33.75V3.5H39V5.25H42.5V7H44.25V10.5H46V12.25H44.25V14H46V15.75H47.75V17.5H46V19.25H47.75V21H40.75V19.25H35.5V21H33.75V19.25H28.5V15.75H30.25V17.5H39V14H35.5V15.75H33.75V14H28.5H25V15.75H19.75V17.5H16.25V15.75H14.5V14H16.25V12.25Z" fill="#038E00"/>
  <rect x="47.75" y="14" width="1.75" height="1.75" fill="#038E00"/>
  <rect x="47.75" y="14" width="1.75" height="1.75" fill="#038E00"/>
  <rect x="47.75" y="14" width="1.75" height="1.75" fill="#038E00"/>
  <rect x="49.5" y="15.75" width="1.75" height="1.75" fill="#038E00"/>
  <rect x="49.5" y="15.75" width="1.75" height="1.75" fill="#038E00"/>
  <rect x="49.5" y="15.75" width="1.75" height="1.75" fill="#038E00"/>
  <rect x="47.75" y="17.5" width="1.75" height="1.75" fill="#038E00"/>
  <rect x="47.75" y="17.5" width="1.75" height="1.75" fill="#038E00"/>
  <rect x="47.75" y="17.5" width="1.75" height="1.75" fill="#038E00"/>
  <rect x="47.75" y="21" width="1.75" height="1.75" fill="#038E00"/>
  <rect x="47.75" y="21" width="1.75" height="1.75" fill="#038E00"/>
  <rect x="47.75" y="21" width="1.75" height="1.75" fill="#038E00"/>
  <rect x="49.5" y="19.25" width="1.75" height="1.75" fill="#038E00"/>
  <rect x="49.5" y="19.25" width="1.75" height="1.75" fill="#038E00"/>
  <rect x="49.5" y="19.25" width="1.75" height="1.75" fill="#038E00"/>
  <rect x="51.25" y="21" width="1.75" height="1.75" fill="#038E00"/>
  <rect x="51.25" y="21" width="1.75" height="1.75" fill="#038E00"/>
  <rect x="51.25" y="21" width="1.75" height="1.75" fill="#038E00"/>
  <rect x="49.5" y="26.25" width="1.75" height="1.75" fill="#038E00"/>
  <rect x="49.5" y="26.25" width="1.75" height="1.75" fill="#038E00"/>
  <rect x="49.5" y="26.25" width="1.75" height="1.75" fill="#038E00"/>
  <rect x="51.25" y="24.5" width="1.75" height="1.75" fill="#038E00"/>
  <rect x="51.25" y="24.5" width="1.75" height="1.75" fill="#038E00"/>
  <rect x="51.25" y="24.5" width="1.75" height="1.75" fill="#038E00"/>
  <rect x="49.5" y="22.75" width="1.75" height="1.75" fill="#038E00"/>
  <rect x="49.5" y="22.75" width="1.75" height="1.75" fill="#038E00"/>
  <rect x="49.5" y="22.75" width="1.75" height="1.75" fill="#038E00"/>
  <rect x="49.5" y="28" width="1.75" height="1.75" fill="#038E00"/>
  <rect x="49.5" y="28" width="1.75" height="1.75" fill="#038E00"/>
  <rect x="49.5" y="28" width="1.75" height="1.75" fill="#038E00"/>
  <rect x="14.5" y="17.5" width="1.75" height="1.75" fill="#038E00"/>
  <rect x="14.5" y="17.5" width="1.75" height="1.75" fill="#038E00"/>
  <rect x="14.5" y="17.5" width="1.75" height="1.75" fill="#038E00"/>
  <rect x="12.75" y="19.25" width="1.75" height="1.75" fill="#038E00"/>
  <rect x="12.75" y="19.25" width="1.75" height="1.75" fill="#038E00"/>
  <rect x="12.75" y="19.25" width="1.75" height="1.75" fill="#038E00"/>
  <rect x="11" y="19.25" width="1.75" height="1.75" fill="#038E00"/>
  <rect x="11" y="19.25" width="1.75" height="1.75" fill="#038E00"/>
  <rect x="11" y="19.25" width="1.75" height="1.75" fill="#038E00"/>
  <rect x="11" y="10.5" width="1.75" height="1.75" fill="#038E00"/>
  <rect x="11" y="10.5" width="1.75" height="1.75" fill="#038E00"/>
  <rect x="11" y="10.5" width="1.75" height="1.75" fill="#038E00"/>
  <rect x="12.75" y="24.5" width="1.75" height="1.75" fill="#038E00"/>
  <rect x="12.75" y="24.5" width="1.75" height="1.75" fill="#038E00"/>
  <rect x="12.75" y="24.5" width="1.75" height="1.75" fill="#038E00"/>
  <rect x="5.75" y="36.75" width="1.75" height="3.5" fill="#038E00"/>
  <rect x="5.75" y="36.75" width="1.75" height="3.5" fill="#038E00"/>
  <rect x="5.75" y="36.75" width="1.75" height="3.5" fill="#038E00"/>
  <rect x="4" y="35" width="1.75" height="3.5" fill="#038E00"/>
  <rect x="4" y="35" width="1.75" height="3.5" fill="#038E00"/>
  <rect x="4" y="35" width="1.75" height="3.5" fill="#038E00"/>
  <rect x="25" y="47.25" width="1.75" height="1.75" fill="#038E00"/>
  <rect x="25" y="47.25" width="1.75" height="1.75" fill="#038E00"/>
  <rect x="25" y="47.25" width="1.75" height="1.75" fill="#038E00"/>
  <path d="M23.25 40.25H21.5V33.25H16.25V31.5H12.75V29.75H16.25V28H14.5V26.25H16.25V24.5H14.5V22.75H18V21H23.25V22.75H28.5V24.5H26.75V26.25H25V29.75H23.25V35H25V38.5H26.75V40.25H28.5V42H32V43.75H30.25V45.5H28.5V47.25H26.75V45.5H23.25V40.25Z" fill="#038E00"/>
  <path d="M23.25 40.25H21.5V33.25H16.25V31.5H12.75V29.75H16.25V28H14.5V26.25H16.25V24.5H14.5V22.75H18V21H23.25V22.75H28.5V24.5H26.75V26.25H25V29.75H23.25V35H25V38.5H26.75V40.25H28.5V42H32V43.75H30.25V45.5H28.5V47.25H26.75V45.5H23.25V40.25Z" fill="#038E00"/>
  <path d="M23.25 40.25H21.5V33.25H16.25V31.5H12.75V29.75H16.25V28H14.5V26.25H16.25V24.5H14.5V22.75H18V21H23.25V22.75H28.5V24.5H26.75V26.25H25V29.75H23.25V35H25V38.5H26.75V40.25H28.5V42H32V43.75H30.25V45.5H28.5V47.25H26.75V45.5H23.25V40.25Z" fill="#038E00"/>
  <rect x="14.5" y="8.75" width="1.75" height="3.5" fill="#038E00"/>
  <rect x="14.5" y="8.75" width="1.75" height="3.5" fill="#038E00"/>
  <rect x="14.5" y="8.75" width="1.75" height="3.5" fill="#038E00"/>
  <rect x="19.75" y="3.5" width="1.75" height="1.75" fill="#038E00"/>
  <rect x="19.75" y="3.5" width="1.75" height="1.75" fill="#038E00"/>
  <rect x="19.75" y="3.5" width="1.75" height="1.75" fill="#038E00"/>
  <rect x="12.75" y="17.5" width="1.75" height="1.75" fill="#038E00"/>
  <rect x="12.75" y="17.5" width="1.75" height="1.75" fill="#038E00"/>
  <rect x="12.75" y="17.5" width="1.75" height="1.75" fill="#038E00"/>
  <rect x="25" y="17.5" width="1.75" height="1.75" fill="#038E00"/>
  <rect x="25" y="17.5" width="1.75" height="1.75" fill="#038E00"/>
  <rect x="25" y="17.5" width="1.75" height="1.75" fill="#038E00"/>
  <rect x="28.5" y="21" width="3.5" height="1.75" fill="#038E00"/>
  <rect x="28.5" y="21" width="3.5" height="1.75" fill="#038E00"/>
  <rect x="28.5" y="21" width="3.5" height="1.75" fill="#038E00"/>
  <rect x="46" y="12.25" width="1.75" height="1.75" fill="#038E00"/>
  <rect x="46" y="12.25" width="1.75" height="1.75" fill="#038E00"/>
  <rect x="46" y="12.25" width="1.75" height="1.75" fill="#038E00"/>
  <rect x="5.75" y="35" width="1.75" height="1.75" fill="#0A30FF"/>
  <rect x="16.25" y="49" width="1.75" height="1.75" fill="#0A30FF"/>
  <rect x="19.75" y="49" width="1.75" height="1.75" fill="#0A30FF"/>
  <rect x="21.5" y="47.25" width="1.75" height="1.75" fill="#0A30FF"/>
  <rect x="28.5" y="45.5" width="1.75" height="1.75" fill="#0A30FF"/>
  <rect x="37.25" y="43.75" width="1.75" height="1.75" fill="#0A30FF"/>
  <rect x="44.25" y="36.75" width="1.75" height="1.75" fill="#0A30FF"/>
  <rect x="46" y="35" width="1.75" height="1.75" fill="#0A30FF"/>
  <rect x="46" y="31.5" width="1.75" height="1.75" fill="#0A30FF"/>
  <rect x="47.75" y="29.75" width="1.75" height="1.75" fill="#0A30FF"/>
  <rect x="49.5" y="24.5" width="1.75" height="1.75" fill="#0A30FF"/>
  <rect x="37.25" y="19.25" width="1.75" height="1.75" fill="#0A30FF"/>
  <path d="M25 14H28.5V19.25H33.75V21H28.5V22.75H23.25V21H19.75L23.25 19.25H26.75V17.5H23.25V19.25L19.75 21V15.75H25V14Z" fill="#0A30FF"/>
  <rect x="21.5" y="8.75" width="1.75" height="1.75" fill="#0A30FF"/>
  <rect x="19.75" y="7" width="1.75" height="1.75" fill="#0A30FF"/>
  <rect x="16.25" y="10.5" width="1.75" height="1.75" fill="#0A30FF"/>
  <rect x="11" y="12.25" width="1.75" height="1.75" fill="#0A30FF"/>
  <rect x="11" y="24.5" width="1.75" height="1.75" fill="#0A30FF"/>
  <path d="M14.5 21H12.75V22.75H16.25V21H18V19.25H14.5V21Z" fill="#0A30FF"/>
  <rect x="28.5" y="1.75" width="1.75" height="1.75" fill="#0A30FF"/>
  <rect x="32" y="3.5" width="1.75" height="1.75" fill="#0A30FF"/>
  <path d="M21.5 5.25H23.25V3.5H25V8.75H23.25V7H21.5V5.25Z" fill="#0A30FF"/>
  <path d="M30.25 14H33.75V15.75H35.5V17.5H30.25V14Z" fill="#0A30FF"/>
  <rect x="35.5" y="14" width="1.75" height="1.75" fill="#0A30FF"/>
  <rect x="37.25" y="15.75" width="1.75" height="1.75" fill="#0A30FF"/>
  <path d="M46 26.25V28H47.75V29.75H44.25V26.25H42.5V24.5L40.75 24.5V22.75H39V21H44.25L44.25 22.75L46 22.75V21H47.75V22.75H49.5V24.5H47.75V26.25H46Z" fill="#0A30FF"/>
  <rect x="39" y="45.5" width="1.75" height="1.75" fill="#0A30FF"/>
  <rect x="35.5" y="45.5" width="1.75" height="1.75" fill="#0A30FF"/>
  <path d="M32 43.75H33.75H35.5V45.5H33.75V47.25H32V43.75Z" fill="#0A30FF"/>
  <path d="M7.5 33.25H9.25V31.5H7.5V29.75H9.25V28H11V31.5H12.75V33.25H16.25V35H21.5V40.25H23.25V42H21.5V47.25H19.75V49H18V47.25H16.25V49H14.5V47.25H12.75V45.5H9.25V42H7.5V38.5H9.25V35H7.5V33.25Z" fill="#0A30FF"/>
  <rect x="28.5" y="24.5" width="1.75" height="1.75" fill="black"/>
  <rect x="26.75" y="26.25" width="1.75" height="1.75" fill="black"/>
  <rect x="18" y="19.25" width="1.75" height="1.75" fill="#0A30FF"/>
  <rect x="44.25" y="35" width="1.75" height="1.75" fill="#031993"/>
  <rect x="46" y="33.25" width="1.75" height="1.75" fill="#031993"/>
  <rect x="46" y="29.75" width="1.75" height="1.75" fill="#031993"/>
  <rect x="46" y="26.25" width="1.75" height="1.75" fill="#031993"/>
  <rect x="47.75" y="24.5" width="1.75" height="1.75" fill="#031993"/>
  <rect x="51.25" y="22.75" width="1.75" height="1.75" fill="#031993"/>
  <rect x="49.5" y="21" width="1.75" height="1.75" fill="#031993"/>
  <rect x="47.75" y="19.25" width="1.75" height="1.75" fill="#031993"/>
  <rect x="46" y="17.5" width="1.75" height="1.75" fill="#031993"/>
  <rect x="51.25" y="19.25" width="1.75" height="1.75" fill="#031993"/>
  <rect x="49.5" y="17.5" width="1.75" height="1.75" fill="#031993"/>
  <rect x="47.75" y="15.75" width="1.75" height="1.75" fill="#031993"/>
  <rect x="46" y="14" width="1.75" height="1.75" fill="#031993"/>
  <rect x="44.25" y="12.25" width="1.75" height="1.75" fill="#031993"/>
  <rect x="47.75" y="12.25" width="1.75" height="1.75" fill="#031993"/>
  <rect x="46" y="10.5" width="1.75" height="1.75" fill="#031993"/>
  <rect x="44.25" y="8.75" width="1.75" height="1.75" fill="#031993"/>
  <rect x="44.25" y="21" width="1.75" height="1.75" fill="#031993"/>
  <rect x="40.75" y="22.75" width="1.75" height="1.75" fill="#031993"/>
  <rect x="37.25" y="21" width="1.75" height="1.75" fill="#031993"/>
  <rect width="1.75" height="1.75" transform="matrix(-1 0 0 1 37.25 19.25)" fill="#031993"/>
  <rect width="1.75" height="1.75" transform="matrix(-1 0 0 1 37.25 15.75)" fill="#031993"/>
  <rect width="1.75" height="1.75" transform="matrix(-1 0 0 1 25 17.5)" fill="#031993"/>
  <rect width="1.75" height="1.75" transform="matrix(-1 0 0 1 19.75 17.5)" fill="#031993"/>
  <rect width="1.75" height="1.75" transform="matrix(1 0 0 -1 21.5 8.75)" fill="#031993"/>
  <rect width="1.75" height="1.75" transform="matrix(1 0 0 -1 11 47.25)" fill="#031993"/>
  <rect width="1.75" height="1.75" transform="matrix(1 0 0 -1 12.75 49)" fill="#031993"/>
  <rect width="1.75" height="1.75" transform="matrix(1 0 0 -1 16.25 49)" fill="#031993"/>
  <rect width="1.75" height="1.75" transform="matrix(1 0 0 -1 19.75 49)" fill="#031993"/>
  <rect width="1.75" height="1.75" transform="matrix(1 0 0 -1 18 50.75)" fill="#031993"/>
  <rect width="1.75" height="1.75" transform="matrix(1 0 0 -1 21.5 47.25)" fill="#031993"/>
  <rect width="1.75" height="1.75" transform="matrix(1 0 0 -1 25 47.25)" fill="#031993"/>
  <rect width="15.75" height="1.75" transform="matrix(1 0 0 -1 19.75 52.5)" fill="#031993"/>
  <rect width="17.5" height="1.75" transform="matrix(1 0 0 -1 21.5 50.75)" fill="#031993"/>
  <rect width="1.75" height="1.75" transform="matrix(1 0 0 -1 23.25 49)" fill="#031993"/>
  <rect width="15.75" height="1.75" transform="matrix(1 0 0 -1 26.75 49)" fill="#031993"/>
  <rect width="1.75" height="1.75" transform="matrix(1 0 0 -1 30.25 47.25)" fill="#031993"/>
  <rect width="1.75" height="1.75" transform="matrix(1 0 0 -1 30.25 45.5)" fill="#031993"/>
  <rect width="1.75" height="1.75" transform="matrix(1 0 0 -1 33.75 47.25)" fill="#031993"/>
  <rect width="1.75" height="1.75" transform="matrix(1 0 0 -1 37.25 47.25)" fill="#031993"/>
  <rect width="1.75" height="1.75" transform="matrix(1 0 0 -1 35.5 45.5)" fill="#031993"/>
  <rect x="46" y="36.75" width="1.75" height="3.5" fill="#031993"/>
  <rect x="47.75" y="26.25" width="1.75" height="3.5" fill="#031993"/>
  <rect x="47.75" y="31.5" width="1.75" height="10.5" fill="#031993"/>
  <rect x="49.5" y="29.75" width="1.75" height="8.75" fill="#031993"/>
  <rect x="51.25" y="26.25" width="1.75" height="8.75" fill="#031993"/>
  <rect x="53" y="49" width="1.75" height="1.75" fill="#941300"/>
  <rect x="51.25" y="49" width="1.75" height="1.75" fill="#941300"/>
  <rect x="49.5" y="47.25" width="1.75" height="1.75" fill="#941300"/>
  <rect x="47.75" y="45.5" width="1.75" height="1.75" fill="#941300"/>
  <rect x="46" y="42" width="1.75" height="1.75" fill="#941300"/>
  <rect x="47.75" y="43.75" width="1.75" height="1.75" fill="#941300"/>
  <rect x="49.5" y="45.5" width="1.75" height="1.75" fill="#941300"/>
  <rect x="51.25" y="47.25" width="1.75" height="1.75" fill="#941300"/>
  <rect x="53" y="50.75" width="1.75" height="1.75" fill="#941300"/>
  <rect x="53" y="52.5" width="1.75" height="1.75" fill="#941300"/>
  <rect x="47.75" y="52.5" width="1.75" height="1.75" fill="#941300"/>
  <rect x="46" y="50.75" width="1.75" height="1.75" fill="#941300"/>
  <rect x="44.25" y="49" width="1.75" height="1.75" fill="#941300"/>
  <rect x="42.5" y="47.25" width="1.75" height="1.75" fill="#941300"/>
  <rect x="46" y="43.75" width="1.75" height="1.75" fill="#941300"/>
  <rect x="49.5" y="50.75" width="1.75" height="1.75" fill="#FD40FC"/>
  <rect x="47.75" y="49" width="1.75" height="1.75" fill="#FD40FC"/>
  <rect x="47.75" y="49" width="1.75" height="1.75" fill="#FD40FC"/>
  <rect x="51.25" y="50.75" width="1.75" height="1.75" fill="#FD2800"/>
  <rect x="51.25" y="52.5" width="1.75" height="1.75" fill="#FD2800"/>
  <rect x="49.5" y="52.5" width="1.75" height="1.75" fill="#FD2800"/>
  <rect x="47.75" y="50.75" width="1.75" height="1.75" fill="#FD2800"/>
  <rect x="47.75" y="47.25" width="1.75" height="1.75" fill="#FD2800"/>
  <rect x="44.25" y="47.25" width="1.75" height="1.75" fill="#FD2800"/>
  <rect x="44.25" y="43.75" width="1.75" height="1.75" fill="#FD2800"/>
  <rect x="42.5" y="45.5" width="1.75" height="1.75" fill="#FD2800"/>
  <rect x="46" y="45.5" width="1.75" height="1.75" fill="#FD2800"/>
  <rect x="46" y="47.25" width="1.75" height="1.75" fill="#FD40FC"/>
  <rect x="46" y="49" width="1.75" height="1.75" fill="#FD2800"/>
  <rect x="49.5" y="49" width="1.75" height="1.75" fill="#FD2800"/>
  <rect x="39" y="42" width="1.75" height="1.75" fill="#FD2800"/>
  <rect x="40.75" y="42" width="1.75" height="1.75" fill="#FD2800"/>
  <rect x="42.5" y="42" width="1.75" height="1.75" fill="#FD2800"/>
  <rect x="42.5" y="43.75" width="1.75" height="1.75" fill="#FD2800"/>
  <rect x="40.75" y="40.25" width="1.75" height="1.75" fill="#FD2800"/>
  <rect x="44.25" y="45.5" width="1.75" height="1.75" fill="#FD2800"/>
  <rect x="40.75" y="45.5" width="1.75" height="1.75" fill="#941300"/>
  <rect x="40.75" y="43.75" width="1.75" height="1.75" fill="#FD2800"/>
  <rect x="37.25" y="36.75" width="1.75" height="1.75" fill="#00FEFE"/>
  <rect x="39" y="35" width="1.75" height="1.75" fill="#00FEFE"/>
  <rect x="40.75" y="33.25" width="1.75" height="1.75" fill="#00FEFE"/>
  <rect x="40.75" y="29.75" width="1.75" height="1.75" fill="#00FEFE"/>
  <rect x="39" y="31.5" width="1.75" height="1.75" fill="#00FEFE"/>
  <rect x="37.25" y="33.25" width="1.75" height="1.75" fill="#00FEFE"/>
  <rect x="35.5" y="35" width="1.75" height="1.75" fill="#00FEFE"/>
  <rect x="33.75" y="36.75" width="1.75" height="1.75" fill="#00FEFE"/>
  <rect x="32" y="38.5" width="1.75" height="1.75" fill="#00FEFE"/>
  <rect x="32" y="35" width="1.75" height="1.75" fill="#00FEFE"/>
  <rect x="33.75" y="33.25" width="1.75" height="1.75" fill="#00FEFE"/>
  <rect x="35.5" y="31.5" width="1.75" height="1.75" fill="#00FEFE"/>
  <rect x="37.25" y="29.75" width="1.75" height="1.75" fill="#00FEFE"/>
  <rect x="39" y="28" width="1.75" height="1.75" fill="#00FEFE"/>
  <rect x="37.25" y="26.25" width="1.75" height="1.75" fill="#00FEFE"/>
  <rect x="35.5" y="28" width="1.75" height="1.75" fill="#00FEFE"/>
  <rect x="33.75" y="29.75" width="1.75" height="1.75" fill="#00FEFE"/>
  <rect x="32" y="31.5" width="1.75" height="1.75" fill="#00FEFE"/>
  <rect x="30.25" y="33.25" width="1.75" height="1.75" fill="#00FEFE"/>
  <rect x="28.5" y="35" width="1.75" height="1.75" fill="#00FEFE"/>
  <rect x="26.75" y="33.25" width="1.75" height="1.75" fill="#00FEFE"/>
  <rect x="28.5" y="31.5" width="1.75" height="1.75" fill="#00FEFE"/>
  <rect x="33.75" y="22.75" width="1.75" height="1.75" fill="#00FEFE"/>
  <rect x="32" y="24.5" width="1.75" height="1.75" fill="#00FEFE"/>
  <rect x="30.25" y="26.25" width="1.75" height="1.75" fill="#00FEFE"/>
  <rect x="28.5" y="28" width="1.75" height="1.75" fill="#00FEFE"/>
  <rect x="26.75" y="29.75" width="1.75" height="1.75" fill="#00FEFE"/>
  <rect x="25" y="31.5" width="1.75" height="1.75" fill="#00FEFE"/>
  <rect x="32" y="28" width="1.75" height="1.75" fill="#00FEFE"/>
  <rect x="33.75" y="26.25" width="1.75" height="1.75" fill="#00FEFE"/>
  <rect x="35.5" y="24.5" width="1.75" height="1.75" fill="#00FEFE"/>
  <rect x="30.25" y="36.75" width="1.75" height="1.75" fill="#00FEFE"/>
  <rect x="35.5" y="38.5" width="1.75" height="1.75" fill="#00FEFE"/>
  <rect x="35.5" y="33.25" width="1.75" height="1.75" fill="#53E1E1"/>
  <rect x="33.75" y="38.5" width="1.75" height="1.75" fill="#53E1E1"/>
  <rect x="35.5" y="36.75" width="1.75" height="1.75" fill="#53E1E1"/>
  <rect x="37.25" y="35" width="1.75" height="1.75" fill="#53E1E1"/>
  <rect x="39" y="33.25" width="1.75" height="1.75" fill="#53E1E1"/>
  <rect x="30.25" y="38.5" width="1.75" height="1.75" fill="#53E1E1"/>
  <rect x="40.75" y="31.5" width="1.75" height="1.75" fill="#53E1E1"/>
  <rect x="32" y="33.25" width="1.75" height="1.75" fill="#53E1E1"/>
  <rect x="33.75" y="31.5" width="1.75" height="1.75" fill="#53E1E1"/>
  <rect x="35.5" y="29.75" width="1.75" height="1.75" fill="#53E1E1"/>
  <rect x="37.25" y="28" width="1.75" height="1.75" fill="#53E1E1"/>
  <rect x="37.25" y="24.5" width="1.75" height="1.75" fill="#53E1E1"/>
  <rect x="35.5" y="26.25" width="1.75" height="1.75" fill="#53E1E1"/>
  <rect x="33.75" y="28" width="1.75" height="1.75" fill="#53E1E1"/>
  <rect x="32" y="29.75" width="1.75" height="1.75" fill="#53E1E1"/>
  <rect x="39" y="26.25" width="1.75" height="1.75" fill="#53E1E1"/>
  <rect x="40.75" y="28" width="1.75" height="1.75" fill="#53E1E1"/>
  <rect x="39" y="29.75" width="1.75" height="1.75" fill="#53E1E1"/>
  <rect x="37.25" y="31.5" width="1.75" height="1.75" fill="#53E1E1"/>
  <rect x="33.75" y="35" width="1.75" height="1.75" fill="#53E1E1"/>
  <rect x="32" y="36.75" width="1.75" height="1.75" fill="#53E1E1"/>
  <rect x="30.25" y="31.5" width="1.75" height="1.75" fill="#FEFEFF"/>
  <rect x="30.25" y="29.75" width="1.75" height="3.5" fill="#FEFEFF"/>
  <rect x="30.25" y="35" width="1.75" height="1.75" fill="#FEFEFF"/>
  <rect x="28.5" y="36.75" width="1.75" height="1.75" fill="#FEFEFF"/>
  <rect x="26.75" y="35" width="1.75" height="1.75" fill="#FEFEFF"/>
  <rect x="28.5" y="33.25" width="1.75" height="1.75" fill="#FEFEFF"/>
  <rect x="25" y="33.25" width="1.75" height="1.75" fill="#FEFEFF"/>
  <rect x="26.75" y="31.5" width="1.75" height="1.75" fill="#FEFEFF"/>
  <rect x="28.5" y="29.75" width="1.75" height="1.75" fill="#FEFEFF"/>
  <rect x="30.25" y="28" width="1.75" height="1.75" fill="#FEFEFF"/>
  <rect x="32" y="26.25" width="1.75" height="1.75" fill="#FEFEFF"/>
  <rect x="33.75" y="24.5" width="1.75" height="1.75" fill="#FEFEFF"/>
  <rect x="35.5" y="22.75" width="1.75" height="1.75" fill="#FEFEFF"/>
  <rect x="32" y="22.75" width="1.75" height="1.75" fill="#FEFEFF"/>
  <rect x="30.25" y="24.5" width="1.75" height="1.75" fill="#FEFEFF"/>
  <rect x="28.5" y="26.25" width="1.75" height="1.75" fill="#FEFEFF"/>
  <rect x="26.75" y="28" width="1.75" height="1.75" fill="#FEFEFF"/>
  <rect x="25" y="29.75" width="1.75" height="1.75" fill="#FEFEFF"/>
  <rect x="28.5" y="38.5" width="1.75" height="1.75" fill="#008F93"/>
  <rect x="26.75" y="36.75" width="1.75" height="1.75" fill="#008F93"/>
  <rect x="32" y="40.25" width="5.25" height="1.75" fill="#008F93"/>
  <rect x="37.25" y="38.5" width="3.5" height="1.75" fill="#008F93"/>
  <rect x="39" y="36.75" width="3.5" height="1.75" fill="#008F93"/>
  <rect x="40.75" y="35" width="1.75" height="1.75" fill="#008F93"/>
  <rect x="42.5" y="29.75" width="1.75" height="5.25" fill="#008F93"/>
  <rect x="39" y="24.5" width="1.75" height="1.75" fill="#008F93"/>
  <rect x="40.75" y="26.25" width="1.75" height="1.75" fill="#008F93"/>
  <rect x="5.75" y="17.5" width="1.75" height="10.5" fill="#2136F2"/>
  <rect x="4" y="24.5" width="1.75" height="1.75" fill="#2136F2"/>
  <rect x="2.25" y="19.25" width="1.75" height="1.75" fill="#2136F2"/>
  <rect x="4" y="21" width="1.75" height="1.75" fill="#2136F2"/>
  <rect x="11" y="22.75" width="3.5" height="1.75" fill="#2136F2"/>
  <rect x="14.5" y="24.5" width="1.75" height="1.75" fill="#2136F2"/>
  <rect x="16.25" y="21" width="1.75" height="1.75" fill="#2136F2"/>
  <rect x="12.75" y="26.25" width="1.75" height="1.75" fill="#2136F2"/>
  <rect x="11" y="28" width="1.75" height="1.75" fill="#2136F2"/>
  <rect x="14.5" y="28" width="1.75" height="1.75" fill="#2136F2"/>
  <rect x="4" y="15.75" width="1.75" height="1.75" fill="#2136F2"/>
  <rect x="5.75" y="12.25" width="1.75" height="1.75" fill="#2136F2"/>
  <rect x="7.5" y="10.5" width="1.75" height="1.75" fill="#2136F2"/>
  <rect x="9.25" y="8.75" width="1.75" height="1.75" fill="#2136F2"/>
  <rect x="11" y="7" width="1.75" height="1.75" fill="#2136F2"/>
  <rect x="12.75" y="5.25" width="3.5" height="1.75" fill="#2136F2"/>
  <rect x="16.25" y="3.5" width="3.5" height="1.75" fill="#2136F2"/>
  <rect x="19.75" y="1.75" width="1.75" height="1.75" fill="#2136F2"/>
  <rect x="25" y="1.75" width="1.75" height="1.75" fill="#2136F2"/>
  <rect x="21.5" y="3.5" width="1.75" height="1.75" fill="#2136F2"/>
  <rect x="19.75" y="5.25" width="1.75" height="1.75" fill="#2136F2"/>
  <rect x="14.5" y="7" width="5.25" height="1.75" fill="#2136F2"/>
  <rect x="11" y="8.75" width="3.5" height="1.75" fill="#2136F2"/>
  <rect x="12.75" y="12.25" width="3.5" height="1.75" fill="#2136F2"/>
  <rect x="11" y="15.75" width="5.25" height="1.75" fill="#2136F2"/>
  <rect x="16.25" y="8.75" width="1.75" height="1.75" fill="#2136F2"/>
  <rect x="12.75" y="14" width="1.75" height="1.75" fill="#2136F2"/>
  <rect x="7.5" y="14" width="3.5" height="14" fill="#2136F2"/>
  <rect x="7.5" y="28" width="1.75" height="1.75" fill="#2136F2"/>
  <rect x="4" y="31.5" width="1.75" height="1.75" fill="#2B2BC7"/>
  <rect x="5.75" y="33.25" width="1.75" height="1.75" fill="#2B2BC7"/>
  <rect x="2.25" y="33.25" width="1.75" height="1.75" fill="#009194"/>
  <rect x="2.25" y="29.75" width="1.75" height="1.75" fill="#2B2BC7"/>
  <rect x="2.25" y="26.25" width="1.75" height="1.75" fill="#2B2BC7"/>
  <rect x="4" y="28" width="1.75" height="1.75" fill="#2B2BC7"/>
  <rect x="5.75" y="29.75" width="1.75" height="1.75" fill="#2B2BC7"/>
  <rect x="7.5" y="31.5" width="1.75" height="1.75" fill="#2B2BC7"/>
  <rect x="11" y="29.75" width="1.75" height="1.75" fill="#2B2BC7"/>
  <rect x="12.75" y="28" width="1.75" height="1.75" fill="#2B2BC7"/>
  <rect x="11" y="26.25" width="1.75" height="1.75" fill="#2B2BC7"/>
  <rect x="4" y="22.75" width="1.75" height="1.75" fill="#2B2BC7"/>
  <rect x="4" y="17.5" width="1.75" height="1.75" fill="#2B2BC7"/>
  <rect x="11" y="21" width="1.75" height="1.75" fill="#2B2BC7"/>
  <rect x="11" y="17.5" width="1.75" height="1.75" fill="#2B2BC7"/>
  <rect x="11" y="14" width="1.75" height="1.75" fill="#2B2BC7"/>
  <rect x="9.25" y="12.25" width="1.75" height="1.75" fill="#2B2BC7"/>
  <rect x="12.75" y="10.5" width="1.75" height="1.75" fill="#2B2BC7"/>
  <rect x="12.75" y="7" width="1.75" height="1.75" fill="#2B2BC7"/>
  <rect x="18" y="3.5" width="1.75" height="1.75" fill="#2B2BC7"/>
  <rect x="5.75" y="14" width="1.75" height="3.5" fill="#2B2BC7"/>
  <rect x="12.75" y="31.5" width="3.5" height="1.75" fill="#2B2BC7"/>
  <rect x="16.25" y="33.25" width="1.75" height="1.75" fill="#2B2BC7"/>
  <rect x="4" y="26.25" width="1.75" height="1.75" fill="#009194"/>
  <rect x="2.25" y="28" width="1.75" height="1.75" fill="#009194"/>
  <rect x="5.75" y="28" width="1.75" height="1.75" fill="#009194"/>
  <rect x="5.75" y="31.5" width="1.75" height="1.75" fill="#009194"/>
  <rect x="18" y="33.25" width="1.75" height="1.75" fill="#009194"/>
  <rect x="21.5" y="42" width="1.75" height="1.75" fill="#009194"/>
  <rect x="23.25" y="45.5" width="1.75" height="1.75" fill="#009194"/>
  <rect x="21.5" y="43.75" width="1.75" height="1.75" fill="#009194"/>
  <rect x="19.75" y="33.25" width="1.75" height="1.75" fill="#009194"/>
  <rect x="4" y="33.25" width="1.75" height="1.75" fill="#009194"/>
  <rect x="7.5" y="35" width="1.75" height="1.75" fill="#009194"/>
  <rect x="7.5" y="36.75" width="1.75" height="1.75" fill="#009194"/>
  <rect x="5.75" y="40.25" width="1.75" height="1.75" fill="#009194"/>
  <rect x="7.5" y="42" width="1.75" height="1.75" fill="#009194"/>
  <rect x="4" y="29.75" width="1.75" height="1.75" fill="#009194"/>
  <rect x="2.25" y="31.5" width="1.75" height="1.75" fill="#009194"/>
  <rect x="2.25" y="24.5" width="1.75" height="1.75" fill="#009194"/>
  <rect x="2.25" y="22.75" width="1.75" height="1.75" fill="#009194"/>
  <rect x="4" y="19.25" width="1.75" height="1.75" fill="#009194"/>
  <rect x="2.25" y="21" width="1.75" height="1.75" fill="#009194"/>
  <rect x="7.5" y="12.25" width="1.75" height="1.75" fill="#009194"/>
  <rect x="9.25" y="10.5" width="1.75" height="1.75" fill="#009194"/>
  <rect x="16.25" y="5.25" width="1.75" height="1.75" fill="#009194"/>
  <rect x="18" y="5.25" width="1.75" height="1.75" fill="#009194"/>
  <rect x="21.5" y="1.75" width="1.75" height="1.75" fill="#009194"/>
  <rect x="23.25" y="1.75" width="1.75" height="1.75" fill="#009194"/>
  <rect x="26.75" y="1.75" width="1.75" height="1.75" fill="#009194"/>
  <rect x="30.25" y="1.75" width="1.75" height="1.75" fill="#009194"/>
  <rect x="32" y="1.75" width="1.75" height="1.75" fill="#009194"/>
  <rect x="30.25" y="3.5" width="1.75" height="1.75" fill="#009194"/>
  <rect x="33.75" y="1.75" width="1.75" height="1.75" fill="#009194"/>
  <rect x="18" y="8.75" width="1.75" height="1.75" fill="#009194"/>
  <rect x="39" y="19.25" width="1.75" height="1.75" fill="#009098"/>
  <rect x="37.25" y="14" width="1.75" height="1.75" fill="#009098"/>
  <rect x="28.5" y="14" width="1.75" height="1.75" fill="#009098"/>
  <rect x="16.25" y="17.5" width="1.75" height="1.75" fill="#009098"/>
  <rect x="18" y="33.25" width="1.75" height="1.75" fill="#009098"/>
  <rect x="19.75" y="33.25" width="1.75" height="1.75" fill="#009098"/>
  <rect x="21.5" y="42" width="1.75" height="1.75" fill="#009098"/>
  <rect x="21.5" y="43.75" width="1.75" height="1.75" fill="#009098"/>
  <rect x="23.25" y="45.5" width="1.75" height="1.75" fill="#009098"/>
  <path d="M18 3.5H19.75V1.75H21.5H28.5V3.5L26.75 5.25H23.25V3.5H21.5V5.25H19.75V7H18V3.5Z" fill="#038E00"/>
  <rect x="23.25" y="5.25" width="1.75" height="1.75" fill="#009194"/>
  <rect x="21.5" y="3.5" width="1.75" height="1.75" fill="#009194"/>
  <rect x="21.5" y="8.75" width="1.75" height="1.75" fill="#009194"/>
  <rect x="44.25" y="12.25" width="1.75" height="1.75" fill="#038E00"/>
  <rect x="47.75" y="19.25" width="1.75" height="1.75" fill="#038E00"/>
  <rect x="47.75" y="22.75" width="1.75" height="1.75" fill="#038E00"/>
  <rect x="51.25" y="22.75" width="1.75" height="1.75" fill="#038E00"/>
  <rect x="32" y="14" width="1.75" height="1.75" fill="#038E00"/>
</svg>
