<svg xmlns="http://www.w3.org/2000/svg" width="20px" height="20px" viewBox="0 0 24 24">
  <path d="M20.191 24H3.809c-.479 0-.943-.2-1.272-.548s-.502-.823-.475-1.301l.886-15.5A1.75 1.75 0 0 1 4.694 5h14.611a1.75 1.75 0 0 1 1.747 1.65l.886 15.5c.027.479-.146.954-.475 1.302S20.67 24 20.191 24zM4.694 6.5a.25.25 0 0 0-.249.236l-.886 15.5a.25.25 0 0 0 .25.264h16.383a.248.248 0 0 0 .249-.265l-.886-15.5a.25.25 0 0 0-.249-.235z"/>
  <path d="M16.25 9a.75.75 0 0 1-.75-.75V5c0-1.93-1.57-3.5-3.5-3.5S8.5 3.07 8.5 5v3.25a.75.75 0 0 1-1.5 0V5c0-2.757 2.243-5 5-5s5 2.243 5 5v3.25a.75.75 0 0 1-.75.75z"/>
</svg>
