<svg width="8" height="15" viewBox="0 0 8 15" fill="none" xmlns="http://www.w3.org/2000/svg">
  <rect y="14" width="7" height="1" fill="#ACACAC"/>
  <rect x="2" y="12" width="1" height="1" fill="#8E8E8E"/>
  <rect x="3" y="11" width="1" height="1" fill="#8E8E8E"/>
  <rect x="4" y="10" width="1" height="1" fill="#8E8E8E"/>
  <rect x="1" y="10" width="1" height="1" fill="#8E8E8E"/>
  <rect x="2" y="9" width="1" height="1" fill="#8E8E8E"/>
  <rect x="3" y="8" width="1" height="1" fill="#8E8E8E"/>
  <rect x="4" y="7" width="1" height="1" fill="#8E8E8E"/>
  <rect x="5" y="6" width="1" height="1" fill="#8E8E8E"/>
  <rect x="1" y="6" width="1" height="1" fill="#8E8E8E"/>
  <rect x="2" y="5" width="1" height="1" fill="#8E8E8E"/>
  <rect x="3" y="4" width="1" height="1" fill="#8E8E8E"/>
  <rect x="4" y="3" width="1" height="1" fill="#8E8E8E"/>
  <rect x="5" y="2" width="1" height="1" fill="#8E8E8E"/>
  <rect y="3" width="1" height="1" fill="#8E8E8E"/>
  <rect x="1" y="2" width="1" height="1" fill="#8E8E8E"/>
  <rect x="2" y="1" width="1" height="1" fill="#8E8E8E"/>
  <rect x="5" y="10" width="1" height="1" fill="#8E8E8E"/>
  <rect x="5" y="9" width="1" height="1" fill="#8E8E8E"/>
  <rect x="4" y="11" width="1" height="1" fill="#8E8E8E"/>
  <rect x="5" y="13" width="1" height="1" fill="#8E8E8E"/>
  <rect x="3" y="12" width="1" height="1" fill="#8E8E8E"/>
  <rect y="7" width="1" height="1" fill="#8E8E8E"/>
  <rect y="6" width="1" height="1" fill="#C3C3C3"/>
  <rect x="1" y="5" width="1" height="1" fill="#C3C3C3"/>
  <rect x="2" y="4" width="1" height="1" fill="#C3C3C3"/>
  <rect x="3" y="3" width="1" height="1" fill="#C3C3C3"/>
  <rect x="4" y="2" width="1" height="1" fill="#C3C3C3"/>
  <rect x="5" y="1" width="1" height="1" fill="#C3C3C3"/>
  <rect x="6" y="2" width="1" height="1" fill="#C3C3C3"/>
  <rect x="5" y="3" width="1" height="1" fill="#C3C3C3"/>
  <rect x="4" y="4" width="1" height="1" fill="#C3C3C3"/>
  <rect x="3" y="5" width="1" height="1" fill="#C3C3C3"/>
  <rect x="2" y="6" width="1" height="1" fill="#C3C3C3"/>
  <rect x="1" y="7" width="1" height="1" fill="#C3C3C3"/>
  <rect y="8" width="1" height="1" fill="#C3C3C3"/>
  <rect y="4" width="1" height="1" fill="#C3C3C3"/>
  <rect x="1" y="3" width="1" height="1" fill="#C3C3C3"/>
  <rect x="2" y="2" width="1" height="1" fill="#C3C3C3"/>
  <rect x="3" y="1" width="1" height="1" fill="#C3C3C3"/>
  <rect y="13" width="1" height="1" fill="#C3C3C3"/>
  <rect y="5" width="1" height="1" fill="white"/>
  <rect x="1" y="4" width="1" height="1" fill="white"/>
  <rect x="2" y="3" width="1" height="1" fill="white"/>
  <rect x="3" y="2" width="1" height="1" fill="white"/>
  <rect x="4" y="1" width="1" height="1" fill="white"/>
  <rect width="8" height="1" fill="#D9D9D9"/>
  <rect x="7" y="1" width="1" height="14" fill="#D9D9D9"/>
  <rect y="1" width="1" height="1" fill="white"/>
  <rect y="2" width="1" height="1" fill="#D9D9D9"/>
  <rect x="1" y="1" width="1" height="1" fill="#D9D9D9"/>
  <rect x="6" y="1" width="1" height="1" fill="#D9D9D9"/>
  <rect x="6" y="3" width="1" height="1" fill="#D9D9D9"/>
  <rect y="9" width="1" height="1" fill="white"/>
  <rect x="1" y="8" width="1" height="1" fill="white"/>
  <rect x="2" y="7" width="1" height="1" fill="white"/>
  <rect x="3" y="6" width="1" height="1" fill="white"/>
  <rect x="4" y="5" width="1" height="1" fill="white"/>
  <rect x="5" y="4" width="1" height="1" fill="white"/>
  <rect x="6" y="4" width="1" height="1" fill="#D7D7D7"/>
  <rect x="6" y="5" width="1" height="1" fill="#D7D7D7"/>
  <rect x="6" y="6" width="1" height="1" fill="#BEBEBE"/>
  <rect x="6" y="7" width="1" height="2" fill="#D9D9D9"/>
  <rect y="12" width="1" height="1" fill="white"/>
  <rect y="12" width="1" height="1" fill="white"/>
  <rect x="1" y="12" width="1" height="1" fill="white"/>
  <rect x="2" y="11" width="1" height="1" fill="white"/>
  <rect x="3" y="10" width="1" height="1" fill="white"/>
  <rect x="4" y="9" width="1" height="1" fill="white"/>
  <rect x="5" y="8" width="1" height="1" fill="white"/>
  <rect x="4" y="12" width="1" height="1" fill="white"/>
  <rect x="1" y="11" width="1" height="1" fill="#E3E3E3"/>
  <rect x="2" y="10" width="1" height="1" fill="#E3E3E3"/>
  <rect x="3" y="9" width="1" height="1" fill="#E3E3E3"/>
  <rect x="4" y="8" width="1" height="1" fill="#E3E3E3"/>
  <rect x="5" y="7" width="1" height="1" fill="#E3E3E3"/>
  <rect y="10" width="1" height="1" fill="#AFAFAF"/>
  <rect y="11" width="1" height="1" fill="#AFAFAF"/>
  <rect y="13" width="1" height="1" fill="#C3C3C3"/>
  <rect x="1" y="13" width="1" height="1" fill="#A4A4A4"/>
  <rect x="2" y="13" width="1" height="1" fill="#B5B5B5"/>
  <rect x="1" y="9" width="1" height="1" fill="#AFAFAF"/>
  <rect x="2" y="8" width="1" height="1" fill="#AFAFAF"/>
  <rect x="3" y="7" width="1" height="1" fill="#AFAFAF"/>
  <rect x="4" y="6" width="1" height="1" fill="#AFAFAF"/>
  <rect x="5" y="5" width="1" height="1" fill="#AFAFAF"/>
  <rect x="3" y="13" width="1" height="1" fill="#D9D9D9"/>
  <rect x="6" y="9" width="1" height="1" fill="#BDBDBD"/>
  <rect x="6" y="13" width="1" height="1" fill="#BDBDBD"/>
  <rect x="4" y="13" width="1" height="1" fill="#BDBDBD"/>
  <rect x="6" y="12" width="1" height="1" fill="#BDBDBD"/>
  <rect x="6" y="10" width="1" height="1" fill="#CACACA"/>
  <rect x="5" y="11" width="1" height="1" fill="#E1E1E1"/>
  <rect x="3" y="13" width="1" height="1" fill="#E1E1E1"/>
  <rect x="5" y="12" width="1" height="1" fill="#E1E1E1"/>
  <rect x="6" y="11" width="1" height="1" fill="#E1E1E1"/>
</svg>
