<svg viewBox="0 0 37 7" fill="none" xmlns="http://www.w3.org/2000/svg">
  <rect y="6" width="1" height="1" fill="black"/>
  <rect y="5" width="1" height="1" fill="black"/>
  <rect x="2" y="4" width="1" height="1" fill="black"/>
  <rect x="3" y="4" width="1" height="1" fill="black"/>
  <rect x="4" y="5" width="1" height="1" fill="black"/>
  <rect x="4" y="6" width="1" height="1" fill="black"/>
  <rect x="3" y="3" width="1" height="1" fill="black"/>
  <rect x="3" y="2" width="1" height="1" fill="black"/>
  <rect x="1" y="4" width="1" height="1" fill="black"/>
  <rect x="1" y="3" width="1" height="1" fill="black"/>
  <rect x="1" y="2" width="1" height="1" fill="black"/>
  <rect x="2" y="1" width="1" height="1" fill="black"/>
  <rect x="2" width="1" height="1" fill="black"/>
  <rect x="4" y="4" width="1" height="1" fill="#7B7D7C"/>
  <rect x="1" y="5" width="1" height="1" fill="#7B7D7C"/>
  <rect y="4" width="1" height="1" fill="#7B7D7C"/>
  <rect x="1" y="6" width="1" height="1" fill="#7B7D7C"/>
  <rect x="8" y="6" width="1" height="1" fill="black"/>
  <rect x="7" y="6" width="1" height="1" fill="black"/>
  <rect x="6" y="5" width="1" height="1" fill="black"/>
  <rect x="6" y="4" width="1" height="1" fill="black"/>
  <rect x="7" y="3" width="1" height="1" fill="black"/>
  <rect x="8" y="3" width="1" height="1" fill="black"/>
  <rect x="9" y="6" width="1" height="1" fill="black"/>
  <rect x="9" y="5" width="1" height="1" fill="black"/>
  <rect x="9" y="4" width="1" height="1" fill="black"/>
  <rect x="9" y="3" width="1" height="1" fill="black"/>
  <rect x="9" y="2" width="1" height="1" fill="black"/>
  <rect x="9" y="1" width="1" height="1" fill="black"/>
  <rect x="13" y="6" width="1" height="1" fill="black"/>
  <rect x="12" y="6" width="1" height="1" fill="black"/>
  <rect x="11" y="5" width="1" height="1" fill="black"/>
  <rect x="11" y="4" width="1" height="1" fill="black"/>
  <rect x="12" y="3" width="1" height="1" fill="black"/>
  <rect x="13" y="3" width="1" height="1" fill="black"/>
  <rect x="14" y="6" width="1" height="1" fill="black"/>
  <rect x="14" y="5" width="1" height="1" fill="black"/>
  <rect x="14" y="4" width="1" height="1" fill="black"/>
  <rect x="14" y="3" width="1" height="1" fill="black"/>
  <rect x="14" y="2" width="1" height="1" fill="black"/>
  <rect x="14" y="1" width="1" height="1" fill="black"/>
  <rect x="16" y="6" width="1" height="1" fill="black"/>
  <rect x="16" y="5" width="1" height="1" fill="black"/>
  <rect x="16" y="4" width="1" height="1" fill="black"/>
  <rect x="16" y="3" width="1" height="1" fill="black"/>
  <rect x="17" y="3" width="1" height="1" fill="black"/>
  <rect x="18" y="2" width="1" height="1" fill="black"/>
  <rect x="16" y="2" width="1" height="1" fill="black"/>
  <rect x="22" y="6" width="1" height="1" fill="black"/>
  <rect x="23" y="6" width="1" height="1" fill="black"/>
  <rect x="21" y="6" width="1" height="1" fill="black"/>
  <rect x="20" y="5" width="1" height="1" fill="black"/>
  <rect x="20" y="4" width="1" height="1" fill="black"/>
  <rect x="20" y="3" width="1" height="1" fill="black"/>
  <rect x="21" y="2" width="1" height="1" fill="black"/>
  <rect x="22" y="2" width="1" height="1" fill="black"/>
  <rect x="23" y="3" width="1" height="1" fill="black"/>
  <rect x="22" y="4" width="1" height="1" fill="black"/>
  <rect x="21" y="4" width="1" height="1" fill="black"/>
  <rect x="25" y="6" width="1" height="1" fill="black"/>
  <rect x="26" y="6" width="1" height="1" fill="black"/>
  <rect x="27" y="5" width="1" height="1" fill="black"/>
  <rect x="26" y="4" width="1" height="1" fill="black"/>
  <rect x="25" y="3" width="1" height="1" fill="black"/>
  <rect x="26" y="2" width="1" height="1" fill="black"/>
  <rect x="27" y="2" width="1" height="1" fill="black"/>
  <rect x="29" y="6" width="1" height="1" fill="black"/>
  <rect x="30" y="6" width="1" height="1" fill="black"/>
  <rect x="31" y="5" width="1" height="1" fill="black"/>
  <rect x="30" y="4" width="1" height="1" fill="black"/>
  <rect x="29" y="3" width="1" height="1" fill="black"/>
  <rect x="30" y="2" width="1" height="1" fill="black"/>
  <rect x="31" y="2" width="1" height="1" fill="black"/>
  <rect x="35" y="2" width="1" height="1" fill="black"/>
  <rect x="35" y="6" width="1" height="1" fill="black"/>
</svg>
