<svg viewBox="0 0 12 13" fill="none" xmlns="http://www.w3.org/2000/svg">
  <rect x="12" y="12" width="12" height="12" transform="rotate(-180 12 12)" fill="#D9D9D9"/>
  <rect y="12" width="12" height="1" fill="white"/>
  <path d="M3 7H5V6H7V7H9V8H3V7Z" fill="black"/>
  <rect x="7" y="6" width="1" height="1" fill="#333335"/>
  <rect x="6" y="5" width="1" height="1" fill="#333335"/>
  <rect x="5" y="5" width="1" height="1" fill="#4B4B4D"/>
  <rect x="4" y="6" width="1" height="1" fill="#4B4B4D"/>
  <rect x="3" y="8" width="7" height="1" fill="#8D8C8A"/>
  <rect x="10" y="8" width="1" height="1" fill="#B6B6AE"/>
  <rect x="9" y="7" width="1" height="1" fill="#959490"/>
  <rect x="8" y="6" width="1" height="1" fill="#9F9D9E"/>
  <rect x="7" y="5" width="1" height="1" fill="#9F9D9E"/>
  <rect x="6" y="4" width="1" height="1" fill="#9F9D9E"/>
  <rect x="5" y="4" width="1" height="1" fill="#9F9D9E"/>
  <rect x="4" y="5" width="1" height="1" fill="#9F9D9E"/>
  <rect x="2" y="8" width="1" height="1" fill="#9F9D9E"/>
  <rect x="3" y="6" width="1" height="1" fill="#9F9D9E"/>
  <rect x="3" y="5" width="1" height="1" fill="white"/>
</svg>
