<svg width="14" height="14" viewBox="0 0 14 14" fill="none" xmlns="http://www.w3.org/2000/svg">
  <rect x="3" y="9" width="1" height="1" fill="#8A8A8A"/>
  <rect x="5" y="11" width="1" height="1" fill="#8A8A8A"/>
  <rect x="4" y="8" width="1" height="1" fill="#8A8A8A"/>
  <rect x="6" y="10" width="1" height="1" fill="#8A8A8A"/>
  <rect x="5" y="7" width="1" height="1" fill="#8A8A8A"/>
  <rect x="7" y="9" width="1" height="1" fill="#8A8A8A"/>
  <rect x="9" y="11" width="1" height="1" fill="#8A8A8A"/>
  <rect x="6" y="6" width="1" height="1" fill="#8A8A8A"/>
  <rect x="8" y="8" width="1" height="1" fill="#8A8A8A"/>
  <rect x="10" y="10" width="1" height="1" fill="#8A8A8A"/>
  <rect x="7" y="5" width="1" height="1" fill="#8A8A8A"/>
  <rect x="9" y="7" width="1" height="1" fill="#8A8A8A"/>
  <rect x="11" y="9" width="1" height="1" fill="#8A8A8A"/>
  <rect x="8" y="4" width="1" height="1" fill="#8A8A8A"/>
  <rect x="10" y="6" width="1" height="1" fill="#8A8A8A"/>
  <rect x="4" y="10" width="1" height="1" fill="white"/>
  <rect x="5" y="9" width="1" height="1" fill="white"/>
  <rect x="7" y="11" width="1" height="1" fill="white"/>
  <rect x="6" y="8" width="1" height="1" fill="white"/>
  <rect x="8" y="10" width="1" height="1" fill="white"/>
  <rect x="7" y="7" width="1" height="1" fill="white"/>
  <rect x="9" y="9" width="1" height="1" fill="white"/>
  <rect x="8" y="6" width="1" height="1" fill="white"/>
  <rect x="3" y="7" width="1" height="1" fill="white"/>
  <rect x="4" y="6" width="1" height="1" fill="white"/>
  <rect x="5" y="5" width="1" height="1" fill="white"/>
  <rect x="6" y="4" width="1" height="1" fill="white"/>
  <rect x="7" y="3" width="1" height="1" fill="white"/>
  <rect x="10" y="8" width="1" height="1" fill="white"/>
  <rect x="9" y="5" width="1" height="1" fill="white"/>
  <rect x="11" y="7" width="1" height="1" fill="white"/>
  <rect x="10" y="4" width="1" height="1" fill="white"/>
  <rect x="6" y="11" width="1" height="1" fill="#D9D9D9"/>
  <rect x="7" y="10" width="1" height="1" fill="#D9D9D9"/>
  <rect x="8" y="9" width="1" height="1" fill="#D9D9D9"/>
  <rect x="9" y="8" width="1" height="1" fill="#D9D9D9"/>
  <rect x="10" y="7" width="1" height="1" fill="#D9D9D9"/>
  <rect x="11" y="6" width="1" height="1" fill="#D9D9D9"/>
  <rect x="11" y="5" width="1" height="1" fill="#D9D9D9"/>
  <rect x="11" y="3" width="1" height="1" fill="#D9D9D9"/>
  <rect x="9" y="3" width="1" height="1" fill="#D9D9D9"/>
  <rect x="9" y="3" width="1" height="1" fill="#D9D9D9"/>
  <rect x="3" y="10" width="1" height="1" fill="#D9D9D9"/>
  <rect x="3" y="11" width="1" height="1" fill="#D9D9D9"/>
  <rect x="4" y="9" width="1" height="1" fill="#D9D9D9"/>
  <rect x="5" y="8" width="1" height="1" fill="#D9D9D9"/>
  <rect x="6" y="7" width="1" height="1" fill="#D9D9D9"/>
  <rect x="10" y="11" width="1" height="1" fill="#D9D9D9"/>
  <rect x="11" y="10" width="1" height="1" fill="#D9D9D9"/>
  <rect x="11" y="11" width="1" height="1" fill="#D9D9D9"/>
  <rect x="3" y="6" width="1" height="1" fill="#D9D9D9"/>
  <rect x="4" y="5" width="1" height="1" fill="#D9D9D9"/>
  <rect x="3" y="4" width="1" height="1" fill="#D9D9D9"/>
  <rect x="4" y="3" width="1" height="1" fill="#D9D9D9"/>
  <rect x="5" y="4" width="1" height="1" fill="#D9D9D9"/>
  <rect x="6" y="3" width="1" height="1" fill="#D9D9D9"/>
  <rect x="7" y="6" width="1" height="1" fill="#D9D9D9"/>
  <rect x="8" y="5" width="1" height="1" fill="#D9D9D9"/>
  <rect x="9" y="4" width="1" height="1" fill="#D9D9D9"/>
  <rect x="8" y="3" width="1" height="1" fill="#D9D9D9"/>
  <rect x="4" y="11" width="1" height="1" fill="#BFBFBF"/>
  <rect x="5" y="10" width="1" height="1" fill="#BFBFBF"/>
  <rect x="3" y="8" width="1" height="1" fill="#BFBFBF"/>
  <rect x="4" y="7" width="1" height="1" fill="#BFBFBF"/>
  <rect x="5" y="6" width="1" height="1" fill="#BFBFBF"/>
  <rect x="6" y="5" width="1" height="1" fill="#BFBFBF"/>
  <rect x="7" y="4" width="1" height="1" fill="#BFBFBF"/>
  <rect x="6" y="9" width="1" height="1" fill="#BFBFBF"/>
  <rect x="7" y="8" width="1" height="1" fill="#BFBFBF"/>
  <rect x="8" y="7" width="1" height="1" fill="#BFBFBF"/>
  <rect x="9" y="6" width="1" height="1" fill="#BFBFBF"/>
  <rect x="10" y="5" width="1" height="1" fill="#BFBFBF"/>
  <rect x="11" y="4" width="1" height="1" fill="#BFBFBF"/>
  <rect x="10" y="3" width="1" height="1" fill="#BFBFBF"/>
  <rect x="8" y="11" width="1" height="1" fill="#A1A3A2"/>
  <rect x="9" y="10" width="1" height="1" fill="#A1A3A2"/>
  <rect x="10" y="9" width="1" height="1" fill="#A1A3A2"/>
  <rect x="11" y="8" width="1" height="1" fill="#A1A3A2"/>
  <rect x="3" y="5" width="1" height="1" fill="#AFAFAF"/>
  <rect x="4" y="4" width="1" height="1" fill="#AFAFAF"/>
  <rect x="5" y="3" width="1" height="1" fill="#AFAFAF"/>
  <rect x="3" y="3" width="1" height="1" fill="#AFAFAF"/>
  <rect x="1" y="1" width="1" height="13" fill="#D9D9D9"/>
  <rect x="2" y="1" width="11" height="1" fill="#D9D9D9"/>
  <rect x="13" y="1" width="1" height="13" fill="#D9D9D9"/>
  <rect width="11" height="1" transform="matrix(-1 0 0 1 13 13)" fill="#D9D9D9"/>
  <rect x="2" y="12" width="11" height="1" fill="#ACAEAD"/>
  <rect x="2" y="2" width="11" height="1" fill="#ACAEAD"/>
  <rect x="12" y="3" width="1" height="9" fill="#ACAEAD"/>
  <rect x="2" y="3" width="1" height="9" fill="#ACAEAD"/>
  <rect width="1" height="14" fill="white"/>
  <rect x="1" width="13" height="1" fill="white"/>
</svg>
