<svg viewBox="0 0 500 500" fill="none" xmlns="http://www.w3.org/2000/svg">
  <rect width="500" height="500" fill="#d9d9d9"/>
  <path d="M177.25 243.25L150.25 223.75L146.25 222.25L142.75 218.75L120.75 202.25L95.75 191.75L93.75 189.25L80.25 180.25L77.75 178.25L73.25 175.25L43.75 158.25L42.75 154.75L45.25 153.75L44.25 150.25L49.25 151.25L50.25 149.75L48.25 148.25L46.75 144.75L43.25 143.75L40.25 140.75H37.75L35.75 138.25L30.75 137.25L26.75 133.75L21.25 133.25L14.25 127.25L19.75 127.75L27.75 128.75L31.25 129.25L32.75 132.25L35.75 133.75L37.75 135.75L42.75 136.75L48.75 141.75L53.75 145.25L68.25 154.25H71.75L71.25 151.75L62.0286 144.75L58.25 143.25L54.75 140.75L52.25 140.25L50.25 137.75L46.75 135.25L43.25 134.75L37.75 128.75L33.75 125.25L30.75 124.75L22.75 120.75L19.25 118.25L20.75 116.75L23.75 116.25V113.75L26.75 112.75L31.25 114.75L31.75 112.25L27.25 110.25L25.25 107.25L29.25 108.75L29.75 106.75L32.25 106.25L35.75 108.75L39.25 116.75L38.25 119.25L44.25 122.75L45.25 122.25V120.25L39.25 116.75L35.75 108.75L53.25 118.75L53.75 117.25L57.75 119.75L59.25 122.25L62.0286 122.75L60.75 120.25L63.25 118.75L65.75 119.25L67.75 120.75L73.75 125.25L75.75 124.75L77.25 123.25L55.75 106.75L50.25 104.25L54.75 104.75L49.75 100.25L56.25 102.75L81.75 115.25L83.75 114.25L68.75 99.75L64.75 98.25L63.75 103.25L61.75 101.75L45.75 92.25L40.75 90.75L39.25 86.75H43.25L42.75 83.75H45.75V82.75L44.25 80.75L47.25 81.75L46.75 78.75H49.25L49.75 75.25L52.25 74.25L46.25 70.25L42.25 69.25L40.25 66.25L32.75 61.25L48.25 68.75L51.75 69.25H54.25L53.75 67.25L56.25 68.75L73.75 77.75L80.25 79.25L88.75 86.25L143.25 123.25L142.25 120.25L162.75 133.75V137.25L181.25 150.75L181.75 149.25L175.75 143.25L185.25 149.25L198.75 157.75L213.75 169.75L240.75 187.75L240.25 185.25L195.75 152.75L194.25 151.75L156.75 124.75L196.25 150.75H197.25V149.25L185.25 139.25L197.75 148.25L199.25 149.25V151.25H200.25V152.75L242.75 183.25H244.25L297.75 130.75L313.75 114.25L331.75 98.25L353.75 79.75L372.75 63.75L354.75 80.75L356.25 81.25L363.75 77.75L357.25 83.75L338.25 101.75L304.75 135.25V137.25L363.25 86.75L396.75 59.25L406.75 54.75L405.75 57.25L408.25 58.25L420.25 49.25H423.25L438.25 41.75L443.25 38.75L439.75 43.25L440.25 43.75L444.75 41.75L444.25 44.75H448.75L444.25 47.75L444.75 49.75L450.25 48.25L445.25 52.25L429.75 67.25L401.25 89.25L402.25 91.75L416.25 80.75L443.75 60.25L430.75 71.75L432.75 72.25L447.25 62.25L443.75 67.75L445.25 68.75L455.25 64.25L461.75 59.75L457.25 64.25H458.75H461.25L472.25 60.75L451.75 73.25L419.75 95.75L421.25 96.25L434.25 89.25L420.25 99.25H424.25L447.75 84.25L472.75 68.25L465.25 73.75L449.75 84.75L430.25 99.25L419.75 107.25L410.25 113.75L357.75 154.25L355.25 158.75H357.75L371.25 147.75L389.25 133.75L421.25 110.25L428.75 104.25L423.75 110.75L424.25 110.25H429.25V108.25H431.25V109.75L434.25 110.25L439.75 107.75L435.75 112.25L443.75 107.25L448.75 104.75L444.25 109.75L451.25 107.75L443.75 113.75V115.75L429.75 126.75V128.75L423.25 134.25V136.75L450.75 120.75L423.25 140.25L416.25 145.25L400.25 159.25L391.25 166.25L390.25 168.75L389.25 169.75L388.25 171.25L386.75 172.25H384.25L383.25 174.25L381.25 175.25L380.25 176.25L378.75 180.25L362.75 189.25L344.75 204.25L342.25 208.25L327.75 220.25L317.25 230.25V232.25H316.25V236.25H314.25V241.25H317.25L318.25 237.25L322.25 233.25H324.25L326.25 230.25H327.25V228.25H326.25V227.25H327.25V225.25H329.25L331.25 223.25V220.25H327.75L342.25 208.25L345.75 207.75L362.75 191.75V189.25L378.75 180.25L366.75 194.25L351.25 208.25L337.25 222.25H335.25L333.25 225.25L330.25 228.25V229.25H329.25V230.25H328.25V231.25L325.25 232.25L324.25 235.25L317.25 241.25V243.25L318.25 243.75L333.25 255.75L371.25 287.25L390.25 302.25L405.25 315.75L427.25 335.25L438.25 346.25H435.25V348.25L436.25 349.25V350.25L433.25 347.25H432.25L426.25 341.25H425.25L419.25 335.25H415.25L374.75 300.25L373.75 302.25L437.75 362.75L461.25 385.75L466.75 393.25L463.25 392.25L463.75 396.25L473.25 406.25L479.25 415.75V419.25L481.75 420.75L485.75 426.75L480.75 424.25L480.25 425.75L482.75 427.75L479.75 428.75V433.25L476.75 428.75H473.25L475.75 434.75L463.75 422.25L461.25 423.25L431.75 394.25L430.75 391.75H426.75L427.75 394.75L449.75 416.75L464.25 431.25L449.25 418.25L448.75 419.25L452.75 424.75L455.75 428.25L462.25 435.25L454.75 429.75L454.25 430.25L463.25 442.25L452.75 431.75L456.75 439.75L447.75 428.75L446.75 429.75L456.25 441.75L458.25 446.25L461.25 448.75L460.25 451.25L461.25 455.25L427.75 414.75L420.75 409.75L431.25 425.25L413.25 407.25L410.25 404.75L412.25 408.75L426.25 423.25L455.75 461.25L424.25 425.25L411.25 411.75H409.25L405.75 407.25L393.25 394.25L356.25 355.75L352.25 352.75L350.75 354.75L385.25 390.75L391.75 398.25L390.25 400.75L391.25 402.75L394.75 401.75L404.25 410.25L413.25 420.75L402.75 410.25L402.25 412.25L406.75 418.25L406.25 420.75L409.25 430.25L404.75 425.25L403.25 425.75L405.75 429.75L407.75 432.25L413.25 438.75L407.75 434.75L410.75 443.25L403.75 434.75L401.75 435.75L395.25 430.75L387.75 422.75H384.75L380.25 417.75L377.75 418.75L387.75 430.75L392.25 437.25L394.75 442.75L373.25 419.75L366.75 411.25L343.25 389.75L339.25 388.25L337.25 383.25L330.25 377.25L329.25 379.25L316.25 363.75L315.75 359.75L295.75 343.75L282.75 332.75L271.75 322.25L268.25 321.25L251.25 307.75L250.25 308.25L248.75 312.25L251.25 313.25H254.25V315.25L258.25 317.25L259.25 318.75L260.25 319.25V321.75L264.25 323.25L267.75 323.75L268.25 324.75L271.25 325.75L268.25 326.5L273.75 331.25V328.25L277.25 330.25L278.25 332.75L281.25 333.75L282.75 332.75L285.38 334.975L285.25 338.25L290.25 341.75L292.75 341.212L295.75 343.75V347.25L300.25 349.75L302.25 352.25L306.25 355.25L308.25 357.75L310.75 359.75L316.25 363.75L327.75 377.462L314.25 368.25H311.75L308.25 363.5L304.75 361.75L302.25 358.75L296.75 355.75L294.25 351.75L290.25 349.25L288.75 345.75L284.25 342.75L278.25 338.75L275.25 335.25L267.25 329.25L265.25 328.25L264 326L259.75 323.75L257.25 321.75V319.75L254.75 317.75L249.75 315.25L245.75 313.25L240.25 319.25L234.75 326.75L236.25 322.25H234.25L230.25 327.25L228.75 329.75L227.25 330.75L226.75 334.75L223.25 335.75L221.75 339.25L217.75 342.25L215.75 344.75L214.75 347.25L211.75 347.75L207.75 351.25V354.75L205.25 355.25L203.25 357.75L202.75 360.25L200.75 360.75L190.25 371.25L182.75 381.25L178.25 388.75L167.75 401.75H165.25V404.25L165.75 405.75L159.25 414.25L157.75 412.75L156.75 413.25L157.25 418.25L153.75 421.75L146.75 430.25L135.75 444.75L135.25 437.25L143.25 427.25L148.25 419.25L152.75 414.75L157.25 409.25V406.75L159.25 404.25L169.25 392.75L169.75 391.25L184.75 366.25H187.75L201.75 352.75L214.25 338.25L222.75 328.25L228.25 321.25L232.75 318.25L233.25 314.25L235.25 313.25H237.75L239.75 309.75V307.75L241.75 305.25L244.75 304.75L245.25 302.75H243.25L241.75 305.25L239.75 307.75L235.25 311.25V313.25L233.25 314.25H231.25L228.25 318.25L223.25 322.75L222.25 324.75L220.5 326L209.75 337.75L207.75 342.75L202.75 346.25L195.25 353.25L189.75 360.75L184.75 366.25L169.75 391.25L165.75 393.75L158.25 402.25L159.25 404.25L157.25 406.75L154.25 405.75L153.75 407.25L152.25 411.25L147.75 414.25L141.75 421.25L136.75 427.25L131.75 433.25L126.75 436.25L127.25 433.25H124.25L123.75 429.25L118.25 430.25L116.75 431.75L115.25 435.25L112.75 436.25L112.25 439.25L109.25 440.25L108.75 444.25L104.25 447.75L103.75 453.25L95.75 460.75L94.75 458.25L96.75 455.75L95.25 454.75L99.75 448.25L95.75 447.75L104.25 441.25L108.25 437.25L108.75 434.75L117.75 425.75L130.75 410.25L129.75 408.75L127.25 409.75L112.75 426.25L110.25 426.75L107.25 433.75L99.75 437.75L98.25 440.75L95.25 442.25L88.25 453.25H86.25L85.75 450.25L82.75 449.25L84.75 444.25L84.25 442.75L88.75 435.75L89.75 438.25L95.75 431.75L94.25 429.75L88.75 435.75L84.25 442.75L82.25 443.25L81.75 445.75L76.75 447.75L79.25 444.25L77.25 443.75L76.75 440.75L86.75 430.25L88.25 427.25L91.75 425.25V422.25L95.25 418.25L97.75 415.75L95.25 416.25L92.75 414.25L101.75 402.25L97.75 403.25L93.25 408.25L87.75 412.25L78.25 423.75L79.25 420.75L72.75 425.25L82.75 411.75L85.25 406.25L90.25 400.75L90.75 395.75L88.25 396.25L79.75 404.25H76.75L73.25 409.75L74.25 411.75L75.75 412.25L78.75 410.75L76.75 414.75L66.25 425.75L64.75 429.75L60.75 432.75L58.25 433.25V430.25H55.25V427.25L52.25 428.75L53.25 425.25L50.75 426.25L51.25 423.25H48.75L46.75 419.75L33.75 434.25L44.25 418.75V417.75L41.75 417.25L52.25 402.25L56.75 393.75L63.75 388.75L95.25 354.25L100.75 347.25L101.75 348.25L106.75 341.75L105.25 340.75L119.75 323.25L122.25 324.75L136.25 309.75V307.75L129.25 313.25L160.25 278.75L177.25 258.75L176.25 257.25L126.25 311.75L123.25 313.25L141.25 292.75L126.75 304.75L145.25 287.25L173.25 255.75L170.75 251.75L163.25 247.25L171.25 249.75L159.25 241.25H155.75L154.75 238.25L150.75 237.25L149.25 234L145.25 231.25L141.75 230.75L138.75 226.125L133.25 224.25L129.75 220.75L113.25 208.25L107.75 206.75L105.75 204.25L101.75 202.25L100.75 200.75H97.75L95.75 198.75L92.75 198.25L89.75 195.25L87.25 194.25L85.75 192.75L82.75 191.75L78.75 187.75H75.75L74.25 186.25L70.25 185.75L66.75 182.25L33.25 164.75L40.75 163.25L75.75 180.25L77.75 178.25L80.25 180.25L78.75 182.75L92.75 191.75H95.75L120.75 202.25V204.25L121.75 206.75L141.5 221.25L151.375 228.5L155.25 230.25L161.25 235.75L176.25 246.25L177.25 245.25V243.25Z" fill="#FF0000"/>
</svg>
