<svg width="10" height="10" viewBox="0 0 10 10" fill="none" xmlns="http://www.w3.org/2000/svg">
  <rect width="1" height="10" fill="black"/>
  <rect x="1" width="9" height="1" fill="black"/>
  <rect x="9" y="1" width="1" height="9" fill="black"/>
  <rect x="1" y="9" width="8" height="1" fill="black"/>
  <rect x="8" y="3" width="1" height="6" fill="#B0B0B0"/>
  <rect x="8" y="1" width="1" height="2" fill="#BABABA"/>
  <rect x="7" y="1" width="1" height="3" fill="#D0D0D0"/>
  <rect x="7" y="4" width="1" height="4" fill="#F9F9F9"/>
  <rect x="4" y="3" width="3" height="1" fill="#BFBFBF"/>
  <rect x="3" y="3" width="1" height="1" fill="#D9D9D9"/>
  <rect x="1" y="1" width="1" height="1" fill="#D9D9D9"/>
  <rect x="2" y="3" width="1" height="1" fill="#ABACB1"/>
  <rect x="3" y="4" width="1" height="1" fill="#ABACB1"/>
  <rect x="3" y="2" width="1" height="1" fill="#ABACB1"/>
  <rect x="2" y="2" width="1" height="1" fill="#B2B2BA"/>
  <rect x="2" y="1" width="1" height="1" fill="#B2B2BA"/>
  <rect x="2" y="4" width="1" height="1" fill="#B2B2BA"/>
  <rect x="3" y="8" width="1" height="1" fill="#B2B2BA"/>
  <rect x="1" y="3" width="1" height="1" fill="#B2B2BA"/>
  <rect x="4" y="2" width="3" height="1" fill="#C2C2C2"/>
  <rect x="6" y="1" width="1" height="1" fill="#B9B9B9"/>
  <rect x="3" y="1" width="1" height="1" fill="#B9B9B9"/>
  <rect x="1" y="2" width="1" height="1" fill="#CACACC"/>
  <rect x="1" y="6" width="1" height="1" fill="#CACACC"/>
  <rect x="2" y="6" width="1" height="1" fill="#CACACC"/>
  <rect x="2" y="7" width="1" height="1" fill="#CACACC"/>
  <rect x="2" y="8" width="1" height="1" fill="#CACACC"/>
  <rect x="6" y="7" width="1" height="1" fill="#E6E6E6"/>
  <rect x="4" y="7" width="1" height="1" fill="#DCDCDE"/>
  <rect x="6" y="6" width="1" height="1" fill="#E6E6E6"/>
  <rect x="6" y="5" width="1" height="1" fill="#E6E6E6"/>
  <rect x="6" y="4" width="1" height="1" fill="#D3D3D3"/>
  <rect x="5" y="5" width="1" height="1" fill="#D3D3D3"/>
  <rect x="5" y="6" width="1" height="1" fill="#D3D3D3"/>
  <rect x="5" y="7" width="1" height="1" fill="#D3D3D3"/>
  <rect x="4" y="8" width="1" height="1" fill="#D3D3D3"/>
  <rect x="1" y="7" width="1" height="1" fill="#D3D3D3"/>
  <rect x="1" y="8" width="1" height="1" fill="#D3D3D3"/>
  <rect x="1" y="5" width="1" height="1" fill="#C2C3BD"/>
  <rect x="2" y="5" width="1" height="1" fill="#CACACC"/>
  <rect x="1" y="4" width="1" height="1" fill="#BDBDBB"/>
  <rect x="3" y="7" width="1" height="1" fill="#C4C5CA"/>
  <rect x="3" y="6" width="1" height="1" fill="#C6C7C9"/>
  <rect x="3" y="5" width="1" height="1" fill="#BABBBD"/>
  <rect x="4" y="6" width="1" height="1" fill="#D0D0D0"/>
  <rect x="4" y="5" width="1" height="1" fill="#C2C2C2"/>
  <rect x="4" y="4" width="1" height="1" fill="#BABABC"/>
  <rect x="4" y="1" width="1" height="1" fill="#BABABC"/>
  <rect x="5" y="8" width="1" height="1" fill="#C3C3C3"/>
  <rect x="6" y="8" width="1" height="1" fill="#CCCCCC"/>
  <rect x="7" y="8" width="1" height="1" fill="#E2E2E2"/>
  <rect x="5" y="4" width="1" height="1" fill="#C9C9C9"/>
  <rect x="5" y="1" width="1" height="1" fill="#BEBEBE"/>
</svg>
