<svg viewBox="0 0 12 16" fill="none" xmlns="http://www.w3.org/2000/svg">
  <rect y="15" width="12" height="1" fill="#00001C"/>
  <rect y="1" width="1" height="14" fill="#C3C1F2"/>
  <rect x="1" y="1" width="11" height="1" fill="#BCBAE2"/>
  <rect x="7" y="11" width="4" height="1" fill="#8181E1"/>
  <rect x="4" y="6" width="1" height="4" fill="#8582CF"/>
  <rect x="9" y="6" width="1" height="5" fill="#8181E1"/>
  <rect x="1" y="3" width="1" height="12" fill="#9F9CD5"/>
  <rect x="1" y="2" width="11" height="1" fill="#B3AFEA"/>
  <rect width="12" height="1" fill="#000019"/>
  <rect x="3" y="13" width="9" height="1" fill="#9F9EEC"/>
  <rect x="3" y="12" width="8" height="1" fill="#AEAEFF"/>
  <rect x="2" y="11" width="1" height="3" fill="#A5A2F1"/>
  <rect x="11" y="3" width="1" height="10" fill="#9A9BEE"/>
  <rect x="10" y="7" width="1" height="4" fill="#9D9EFA"/>
  <rect x="6" y="10" width="1" height="1" fill="#7E7FCF"/>
  <rect x="6" y="7" width="1" height="3" fill="#8A8AD0"/>
  <rect x="8" y="8" width="1" height="2" fill="#8F91E4"/>
  <rect x="7" y="10" width="2" height="1" fill="#8587DC"/>
  <rect x="7" y="7" width="1" height="3" fill="#8E8DDB"/>
  <rect x="8" y="6" width="1" height="2" fill="#8A88DB"/>
  <rect x="5" y="6" width="3" height="1" fill="#999ADD"/>
  <rect x="5" y="10" width="1" height="1" fill="#8586D6"/>
  <rect x="5" y="7" width="1" height="3" fill="#9B9BE5"/>
  <rect x="2" y="3" width="1" height="8" fill="#B7B4FB"/>
  <rect x="3" y="3" width="1" height="2" fill="#BCB9FF"/>
  <rect x="4" y="4" width="5" height="1" fill="#A4A5E5"/>
  <rect x="4" y="3" width="5" height="1" fill="#B1B0F4"/>
  <rect x="10" y="3" width="1" height="2" fill="#A5A2F3"/>
  <rect x="9" y="4" width="1" height="1" fill="#8A87DE"/>
  <rect x="9" y="3" width="1" height="1" fill="#9C99E6"/>
  <rect x="10" y="6" width="1" height="1" fill="#ACA8FF"/>
  <rect x="3" y="6" width="1" height="5" fill="#ADA9F6"/>
  <rect x="3" y="11" width="4" height="1" fill="#7D7AD1"/>
  <rect x="4" y="10" width="1" height="1" fill="#7472C5"/>
  <rect x="4" y="5" width="1" height="1" fill="#706FB5"/>
  <rect x="3" y="5" width="1" height="1" fill="#9593DC"/>
  <rect x="5" y="5" width="1" height="1" fill="#7677B7"/>
  <rect x="6" y="5" width="3" height="1" fill="#7A7AC2"/>
  <rect x="9" y="5" width="1" height="1" fill="#6C6ABE"/>
  <rect x="10" y="5" width="1" height="1" fill="#9893EF"/>
  <rect x="2" y="14" width="10" height="1" fill="#6867A9"/>
</svg>
