<svg width="43" height="9" viewBox="0 0 43 9" fill="none" xmlns="http://www.w3.org/2000/svg">
  <rect x="0.5" y="7" width="1" height="2" fill="#ffffff"/>
  <rect x="1.5" y="4" width="1" height="3" fill="#ffffff"/>
  <rect x="2.5" y="2" width="1" height="2" fill="#ffffff"/>
  <rect x="3.5" width="1" height="2" fill="#ffffff"/>
  <rect x="4.5" y="2" width="1" height="2" fill="#ffffff"/>
  <rect x="5.5" y="4" width="1" height="3" fill="#ffffff"/>
  <rect x="2.5" y="6" width="3" height="1" fill="#ffffff"/>
  <rect x="6.5" y="7" width="1" height="2" fill="#ffffff"/>
  <rect x="8.5" width="1" height="9" fill="#ffffff"/>
  <rect x="12.5" y="4" width="1" height="4" fill="#ffffff"/>
  <rect x="9.5" y="8" width="3" height="1" fill="#ffffff"/>
  <rect x="9.5" y="3" width="3" height="1" fill="#ffffff"/>
  <rect x="14.5" y="4" width="1" height="4" fill="#ffffff"/>
  <rect x="18.5" y="4" width="1" height="4" fill="#ffffff"/>
  <rect x="15.5" y="8" width="3" height="1" fill="#ffffff"/>
  <rect x="15.5" y="3" width="3" height="1" fill="#ffffff"/>
  <rect x="20.5" y="3" width="1" height="5" fill="#ffffff"/>
  <rect x="24.5" y="3" width="1" height="6" fill="#ffffff"/>
  <rect x="21.5" y="8" width="2" height="1" fill="#ffffff"/>
  <rect x="23.5" y="7" width="1" height="1" fill="#ffffff"/>
  <rect x="26.5" y="1" width="1" height="7" fill="#ffffff"/>
  <rect x="27.5" y="3" width="1" height="1" fill="#ffffff"/>
  <rect x="27.5" y="8" width="1" height="1" fill="#ffffff"/>
  <rect x="32.5" y="3" width="1" height="5" fill="#ffffff"/>
  <rect x="36.5" y="3" width="1" height="6" fill="#ffffff"/>
  <rect x="33.5" y="8" width="2" height="1" fill="#ffffff"/>
  <rect x="35.5" y="7" width="1" height="1" fill="#ffffff"/>
  <rect x="41.5" y="4" width="1" height="1" fill="#ffffff"/>
  <rect x="39.5" y="3" width="2" height="1" fill="#ffffff"/>
  <rect x="38.5" y="4" width="1" height="1" fill="#ffffff"/>
  <rect x="39.5" y="5" width="1" height="1" fill="#ffffff"/>
  <rect x="40.5" y="6" width="1" height="1" fill="#ffffff"/>
  <rect x="41.5" y="7" width="1" height="1" fill="#ffffff"/>
  <rect x="39.5" y="8" width="2" height="1" fill="#ffffff"/>
  <rect x="38.5" y="7" width="1" height="1" fill="#ffffff"/>
</svg>
