<svg width="36" height="9" viewBox="0 0 36 9" fill="white" xmlns="http://www.w3.org/2000/svg">
  <rect x="5" y="1" width="1" height="1" fill="white"/>
  <rect x="5" y="7" width="1" height="1" fill="white"/>
  <rect y="1" width="1" height="7" fill="white"/>
  <rect x="1" y="8" width="4" height="1" fill="white"/>
  <rect x="1" width="4" height="1" fill="white"/>
  <rect x="10" y="4" width="1" height="4" fill="white"/>
  <rect x="14" y="4" width="1" height="4" fill="white"/>
  <rect x="11" y="8" width="3" height="1" fill="white"/>
  <rect x="11" y="3" width="3" height="1" fill="white"/>
  <rect x="16" y="1" width="1" height="7" fill="white"/>
  <rect x="17" y="3" width="1" height="1" fill="white"/>
  <rect x="17" y="8" width="1" height="1" fill="white"/>
  <rect x="7" y="1" width="1" height="7" fill="white"/>
  <rect x="8" y="8" width="1" height="1" fill="white"/>
  <rect x="23" y="5" width="1" height="4" fill="white"/>
  <rect x="19" y="1" width="1" height="8" fill="white"/>
  <rect x="20" y="5" width="1" height="1" fill="white"/>
  <rect x="21" y="4" width="2" height="1" fill="white"/>
  <rect x="26" y="3" width="3" height="1" fill="white"/>
  <rect x="26" y="5" width="3" height="1" fill="white"/>
  <rect x="26" y="8" width="3" height="1" fill="white"/>
  <rect x="29" y="7" width="1" height="1" fill="white"/>
  <rect x="29" y="4" width="1" height="2" fill="white"/>
  <rect x="25" y="4" width="1" height="4" fill="white"/>
  <rect x="34" y="4" width="1" height="1" fill="white"/>
  <rect x="32" y="3" width="2" height="1" fill="white"/>
  <rect x="31" y="4" width="1" height="1" fill="white"/>
  <rect x="32" y="5" width="1" height="1" fill="white"/>
  <rect x="33" y="6" width="1" height="1" fill="white"/>
  <rect x="34" y="7" width="1" height="1" fill="white"/>
  <rect x="32" y="8" width="2" height="1" fill="white"/>
  <rect x="31" y="7" width="1" height="1" fill="white"/>
</svg>
