<svg viewBox="0 0 37 9" fill="none" xmlns="http://www.w3.org/2000/svg">
  <g clip-path="url(#clip0_190_690)">
    <rect x="4" y="1" width="1" height="1" fill="white"/>
    <rect x="1" width="3" height="1" fill="white"/>
    <rect x="1" y="4" width="3" height="1" fill="white"/>
    <rect x="1" y="8" width="3" height="1" fill="white"/>
    <rect y="7" width="1" height="1" fill="white"/>
    <rect x="4" y="5" width="1" height="3" fill="white"/>
    <rect y="1" width="1" height="3" fill="white"/>
    <rect x="7" y="3" width="3" height="1" fill="white"/>
    <rect x="7" y="5" width="4" height="1" fill="white"/>
    <rect x="7" y="8" width="3" height="1" fill="white"/>
    <rect x="10" y="7" width="1" height="1" fill="white"/>
    <rect x="10" y="4" width="1" height="1" fill="white"/>
    <rect x="6" y="4" width="1" height="4" fill="white"/>
    <rect x="13" y="4" width="1" height="1" fill="white"/>
    <rect x="16" y="4" width="1" height="1" fill="white"/>
    <rect x="14" y="3" width="2" height="1" fill="white"/>
    <rect x="12" y="3" width="1" height="6" fill="white"/>
    <rect x="18" y="3" width="1" height="2" fill="white"/>
    <rect x="19" y="5" width="1" height="2" fill="white"/>
    <rect x="20" y="7" width="1" height="2" fill="white"/>
    <rect x="21" y="5" width="1" height="2" fill="white"/>
    <rect x="22" y="3" width="1" height="2" fill="white"/>
    <rect x="24" y="3" width="1" height="6" fill="white"/>
    <rect x="24" y="1" width="1" height="1" fill="white"/>
    <rect x="30" y="4" width="1" height="1" fill="white"/>
    <rect x="30" y="7" width="1" height="1" fill="white"/>
    <rect x="27" y="8" width="3" height="1" fill="white"/>
    <rect x="27" y="3" width="3" height="1" fill="white"/>
    <rect x="26" y="4" width="1" height="4" fill="white"/>
    <rect x="33" y="3" width="3" height="1" fill="white"/>
    <rect x="33" y="5" width="4" height="1" fill="white"/>
    <rect x="33" y="8" width="3" height="1" fill="white"/>
    <rect x="36" y="7" width="1" height="1" fill="white"/>
    <rect x="36" y="4" width="1" height="1" fill="white"/>
    <rect x="32" y="4" width="1" height="4" fill="white"/>
  </g>
  <defs>
    <clipPath id="clip0_190_690">
      <rect width="37" height="9" fill="white"/>
    </clipPath>
  </defs>
</svg>
