<svg viewBox="0 0 116 62" fill="none" xmlns="http://www.w3.org/2000/svg">
  <path fill-rule="evenodd" clip-rule="evenodd" d="M20.6665 61.6667C19.6056 61.6667 18.5882 61.2453 17.8381 60.4951C17.0879 59.745 16.6665 58.7276 16.6665 57.6667L16.6665 4.33335C16.6665 3.27249 17.0879 2.25507 17.8381 1.50492C18.5882 0.754776 19.6056 0.333352 20.6665 0.333352L111.333 0.333352C112.394 0.333352 113.411 0.754776 114.162 1.50492C114.912 2.25507 115.333 3.27249 115.333 4.33335V57.6667C115.333 58.7276 114.912 59.745 114.162 60.4951C113.411 61.2453 112.394 61.6667 111.333 61.6667L20.6665 61.6667ZM24.6665 53.6667L107.333 53.6667V8.33335L24.6665 8.33335L24.6665 53.6667Z" fill="black"/>
  <path fill-rule="evenodd" clip-rule="evenodd" d="M4.6665 45.6667C3.60564 45.6667 2.58822 45.2453 1.83808 44.4951C1.08793 43.745 0.666504 42.7276 0.666504 41.6667L0.666504 20.3334C0.666504 19.2725 1.08793 18.2551 1.83808 17.5049C2.58822 16.7548 3.60564 16.3334 4.6665 16.3334H20.6665C21.7274 16.3334 22.7448 16.7548 23.4949 17.5049C24.2451 18.2551 24.6665 19.2725 24.6665 20.3334V41.6667C24.6665 42.7276 24.2451 43.745 23.4949 44.4951C22.7448 45.2453 21.7274 45.6667 20.6665 45.6667H4.6665ZM8.6665 37.6667H16.6665V24.3334H8.6665L8.6665 37.6667ZM29.9998 44.3334C29.9998 45.3942 30.4213 46.4117 31.1714 47.1618C31.9216 47.9119 32.939 48.3334 33.9998 48.3334L97.9998 48.3334C100.208 48.3334 102 46.5414 102 44.3334V17.6667C102 16.6058 101.578 15.5884 100.828 14.8383C100.078 14.0881 99.0607 13.6667 97.9998 13.6667L33.9998 13.6667C32.939 13.6667 31.9216 14.0881 31.1714 14.8383C30.4213 15.5884 29.9998 16.6058 29.9998 17.6667L29.9998 44.3334Z" fill="black"/>
</svg>
