<svg viewBox="0 0 588 426" fill="none" xmlns="http://www.w3.org/2000/svg">
  <path d="M254 288H334H353V308H372V328H392V347H372V366H352V386H332.5V406H313V426H274V406H255V386H235V366H215V347H195V328H215V308H235V288H254Z" fill="black"/>
  <path d="M235 150H373V170H412V190.5H451.5V209.5H471.5V229H491V249L471.5 248.75V268.5H451.5V288H412V268.5H393V249H354V229H235V150Z" fill="black"/>
  <path d="M352 150H214V170H175V190.5H135.5V209.5H115.5V229H96V249L115.5 248.75V268.5H135.5V288H175V268.5H194V249H233V229H352V150Z" fill="black"/>
  <path d="M196 0H392V20H451.5V39H490V59H530V79H549V99H569V118H588V157H569V177H510V157H471V137H451.5H432V118H392V98H196V0Z" fill="black"/>
  <path d="M392 0H196V20H136.5V39H98V59H58V79H39V99H19V118H0V157H19V177H78V157H117V137H136.5H156V118H196V98H392V0Z" fill="black"/>
</svg>
